<?xml version="1.0" encoding="UTF-8"?>
<!DOCTYPE svg PUBLIC "-//W3C//DTD SVG 1.1//EN" "http://www.w3.org/Graphics/SVG/1.1/DTD/svg11.dtd">
<svg xmlns="http://www.w3.org/2000/svg" version="1.1" width="324px" height="244px" style="shape-rendering:geometricPrecision; text-rendering:geometricPrecision; image-rendering:optimizeQuality; fill-rule:evenodd; clip-rule:evenodd" xmlns:xlink="http://www.w3.org/1999/xlink">
<g><path style="opacity:0.999" fill="#232323" d="M 165.5,12.5 C 164.828,13.2674 163.995,13.9341 163,14.5C 162.502,17.4816 162.335,20.4816 162.5,23.5C 162.5,24.5 162.5,25.5 162.5,26.5C 161.732,27.2625 161.232,28.2625 161,29.5C 159.684,26.3117 159.184,22.9783 159.5,19.5C 159.5,19.1667 159.5,18.8333 159.5,18.5C 160.458,16.6976 161.125,14.6976 161.5,12.5C 162.833,11.1667 164.167,11.1667 165.5,12.5 Z"/></g>
<g><path style="opacity:0.051" fill="#c8c8c8" d="M 161.5,12.5 C 161.125,14.6976 160.458,16.6976 159.5,18.5C 159.054,15.9899 159.72,13.9899 161.5,12.5 Z"/></g>
<g><path style="opacity:0.999" fill="#2a2a2a" d="M 187.5,21.5 C 187.753,25.0399 188.419,28.3733 189.5,31.5C 189.575,37.5293 189.241,43.5293 188.5,49.5C 188.675,51.6208 188.341,53.6208 187.5,55.5C 186.833,47.5 186.167,39.5 185.5,31.5C 185.5,31.1667 185.5,30.8333 185.5,30.5C 185.649,27.3926 185.149,24.3926 184,21.5C 183.329,20.7476 182.496,20.4142 181.5,20.5C 180.713,18.8958 179.38,18.2291 177.5,18.5C 177.5,19.8333 177.5,21.1667 177.5,22.5C 175.72,21.0101 175.054,19.0101 175.5,16.5C 175.62,15.4138 176.287,14.7472 177.5,14.5C 180.963,15.1536 184.13,16.487 187,18.5C 187.483,19.448 187.649,20.448 187.5,21.5 Z"/></g>
<g><path style="opacity:0.788" fill="#8d8d8d" d="M 201.5,16.5 C 200.167,16.5 198.833,16.5 197.5,16.5C 199.032,14.2187 200.366,14.2187 201.5,16.5 Z"/></g>
<g><path style="opacity:0.412" fill="#a6a6a6" d="M 165.5,12.5 C 166.167,12.5 166.833,12.5 167.5,12.5C 166.34,14.2027 167.007,14.8693 169.5,14.5C 169.819,19.3633 169.486,24.03 168.5,28.5C 168.666,24.1539 168.499,19.8206 168,15.5C 166.667,16.8333 165.333,16.8333 164,15.5C 163.817,18.3647 163.317,21.0314 162.5,23.5C 162.335,20.4816 162.502,17.4816 163,14.5C 163.995,13.9341 164.828,13.2674 165.5,12.5 Z"/></g>
<g><path style="opacity:0.999" fill="#4e4e4e" d="M 196.5,16.5 C 194.969,17.9245 195.302,18.5912 197.5,18.5C 197.5,18.8333 197.5,19.1667 197.5,19.5C 196.5,21.1667 195.167,22.5 193.5,23.5C 192.094,23.9731 191.427,24.9731 191.5,26.5C 190.35,27.8502 189.683,27.6836 189.5,26C 189.989,24.8615 190.322,23.6948 190.5,22.5C 191.5,19.5 193.5,17.5 196.5,16.5 Z"/></g>
<g><path style="opacity:0.986" fill="#141414" d="M 196.5,16.5 C 196.833,16.5 197.167,16.5 197.5,16.5C 198.833,16.5 200.167,16.5 201.5,16.5C 201.799,18.604 201.466,20.604 200.5,22.5C 199.943,20.6684 198.943,19.3351 197.5,18.5C 195.302,18.5912 194.969,17.9245 196.5,16.5 Z"/></g>
<g><path style="opacity:0.302" fill="#cbcbcb" d="M 181.5,20.5 C 180.504,20.5858 179.671,20.2524 179,19.5C 178.768,20.7375 178.268,21.7375 177.5,22.5C 177.5,21.1667 177.5,19.8333 177.5,18.5C 179.38,18.2291 180.713,18.8958 181.5,20.5 Z"/></g>
<g><path style="opacity:0.993" fill="#262626" d="M 174.5,16.5 C 174.5,22.1667 174.5,27.8333 174.5,33.5C 173.833,29.1667 173.167,24.8333 172.5,20.5C 172.657,19.1266 172.49,17.7932 172,16.5C 171.667,16.8333 171.333,17.1667 171,17.5C 170.5,25.8267 170.334,34.16 170.5,42.5C 170.736,45.6085 170.403,48.6085 169.5,51.5C 168.51,45.69 168.177,39.69 168.5,33.5C 168.5,31.8333 168.5,30.1667 168.5,28.5C 169.486,24.03 169.819,19.3633 169.5,14.5C 167.007,14.8693 166.34,14.2027 167.5,12.5C 170.97,11.4086 173.304,12.742 174.5,16.5 Z"/></g>
<g><path style="opacity:0.998" fill="#2c2c2c" d="M 147.5,22.5 C 151.259,22.8621 154.593,24.1954 157.5,26.5C 157.5,26.8333 157.5,27.1667 157.5,27.5C 158.512,28.8717 159.512,30.205 160.5,31.5C 160.745,35.6102 160.745,39.9435 160.5,44.5C 160.663,46.8568 160.497,49.1902 160,51.5C 159.722,50.5842 159.222,49.9175 158.5,49.5C 158.666,45.1539 158.499,40.8206 158,36.5C 157.722,35.5842 157.222,34.9175 156.5,34.5C 155.662,34.1583 155.328,33.4916 155.5,32.5C 155.573,30.9731 154.906,29.9731 153.5,29.5C 152.833,29.5 152.5,29.1667 152.5,28.5C 151.01,26.7202 149.01,26.0535 146.5,26.5C 145.791,25.596 144.791,25.2627 143.5,25.5C 143.216,27.4147 143.549,29.0813 144.5,30.5C 145.992,37.8982 146.658,45.2315 146.5,52.5C 145.833,51.5 145.167,50.5 144.5,49.5C 144.23,43.9029 143.23,38.5695 141.5,33.5C 141.5,29.8333 141.5,26.1667 141.5,22.5C 143.5,22.5 145.5,22.5 147.5,22.5 Z"/></g>
<g><path style="opacity:0.31" fill="#b4b4b4" d="M 181.5,20.5 C 182.496,20.4142 183.329,20.7476 184,21.5C 185.149,24.3926 185.649,27.3926 185.5,30.5C 184.771,26.9924 183.438,23.6591 181.5,20.5 Z"/></g>
<g><path style="opacity:0.373" fill="#bfbfbf" d="M 201.5,16.5 C 202.461,18.2646 202.795,20.2646 202.5,22.5C 204.099,22.2322 205.432,22.5655 206.5,23.5C 203.5,23.5 200.5,23.5 197.5,23.5C 198.686,22.0387 198.686,20.7054 197.5,19.5C 197.5,19.1667 197.5,18.8333 197.5,18.5C 198.943,19.3351 199.943,20.6684 200.5,22.5C 201.466,20.604 201.799,18.604 201.5,16.5 Z"/></g>
<g><path style="opacity:0.106" fill="#dddddd" d="M 174.5,16.5 C 174.833,16.5 175.167,16.5 175.5,16.5C 175.054,19.0101 175.72,21.0101 177.5,22.5C 175.993,26.0417 174.993,29.7083 174.5,33.5C 174.5,27.8333 174.5,22.1667 174.5,16.5 Z"/></g>
<g><path style="opacity:0.998" fill="#2a2a2a" d="M 197.5,23.5 C 200.5,23.5 203.5,23.5 206.5,23.5C 207.625,24.6522 207.625,25.6522 206.5,26.5C 205.167,27.1667 204.167,28.1667 203.5,29.5C 201.967,31.2451 199.967,32.2451 197.5,32.5C 194.752,32.5983 194.086,31.5983 195.5,29.5C 195.5,29.1667 195.5,28.8333 195.5,28.5C 196.167,28.5 196.833,28.5 197.5,28.5C 198.791,28.7373 199.791,28.404 200.5,27.5C 201.376,27.6309 202.043,27.2975 202.5,26.5C 200.305,25.2309 198.139,25.2309 196,26.5C 195.536,25.9056 195.369,25.2389 195.5,24.5C 195.842,23.6618 196.508,23.3284 197.5,23.5 Z"/></g>
<g><path style="opacity:0.502" fill="#a0a0a0" d="M 172.5,20.5 C 171.833,27.8333 171.167,35.1667 170.5,42.5C 170.334,34.16 170.5,25.8267 171,17.5C 171.333,17.1667 171.667,16.8333 172,16.5C 172.49,17.7932 172.657,19.1266 172.5,20.5 Z"/></g>
<g><path style="opacity:0.004" fill="#dedede" d="M 193.5,23.5 C 193.5,24.1667 193.5,24.8333 193.5,25.5C 192.833,25.8333 192.167,26.1667 191.5,26.5C 191.427,24.9731 192.094,23.9731 193.5,23.5 Z"/></g>
<g><path style="opacity:0.773" fill="#979797" d="M 146.5,26.5 C 149.01,26.0535 151.01,26.7202 152.5,28.5C 150.302,28.1249 148.302,27.4582 146.5,26.5 Z"/></g>
<g><path style="opacity:0.012" fill="#cacaca" d="M 195.5,24.5 C 195.369,25.2389 195.536,25.9056 196,26.5C 198.139,25.2309 200.305,25.2309 202.5,26.5C 202.043,27.2975 201.376,27.6309 200.5,27.5C 199.791,28.404 198.791,28.7373 197.5,28.5C 196.833,27.1667 196.167,27.1667 195.5,28.5C 193.952,28.1788 193.285,27.1788 193.5,25.5C 194.167,25.1667 194.833,24.8333 195.5,24.5 Z"/></g>
<g><path style="opacity:0.725" fill="#929292" d="M 131.5,25.5 C 130.5,27.1667 129.167,28.5 127.5,29.5C 127.833,27.1667 129.167,25.8333 131.5,25.5 Z"/></g>
<g><path style="opacity:0.999" fill="#202020" d="M 136.5,23.5 C 137.497,23.4701 138.164,23.9701 138.5,25C 136.509,26.5921 134.509,28.0921 132.5,29.5C 131.659,31.3792 131.325,33.3792 131.5,35.5C 131.662,37.5273 131.495,39.5273 131,41.5C 129.484,38.9485 128.651,39.2819 128.5,42.5C 127.624,42.6309 126.957,42.2975 126.5,41.5C 125.505,37.3247 123.839,33.4913 121.5,30C 122.094,29.5357 122.761,29.369 123.5,29.5C 124.492,29.3284 125.158,29.6618 125.5,30.5C 126.988,33.1864 127.655,32.8531 127.5,29.5C 129.167,28.5 130.5,27.1667 131.5,25.5C 132.78,24.0687 134.447,23.4021 136.5,23.5 Z"/></g>
<g><path style="opacity:0.149" fill="#c4c4c4" d="M 146.5,26.5 C 144.824,27.1834 144.157,28.5168 144.5,30.5C 143.549,29.0813 143.216,27.4147 143.5,25.5C 144.791,25.2627 145.791,25.596 146.5,26.5 Z"/></g>
<g><path style="opacity:0.69" fill="#919191" d="M 187.5,21.5 C 188.222,21.9175 188.722,22.5842 189,23.5C 189.383,22.944 189.883,22.6107 190.5,22.5C 190.322,23.6948 189.989,24.8615 189.5,26C 189.683,27.6836 190.35,27.8502 191.5,26.5C 190.833,28.1667 190.167,29.8333 189.5,31.5C 188.419,28.3733 187.753,25.0399 187.5,21.5 Z"/></g>
<g><path style="opacity:0.18" fill="#c5c5c5" d="M 172.5,20.5 C 173.167,24.8333 173.833,29.1667 174.5,33.5C 174.607,35.3786 174.107,35.7119 173,34.5C 172.501,29.8452 172.334,25.1785 172.5,20.5 Z"/></g>
<g><path style="opacity:0.012" fill="#d5d5d5" d="M 206.5,26.5 C 206.5,28.5 205.5,29.5 203.5,29.5C 204.167,28.1667 205.167,27.1667 206.5,26.5 Z"/></g>
<g><path style="opacity:0.255" fill="#b1b1b1" d="M 147.5,22.5 C 145.5,22.5 143.5,22.5 141.5,22.5C 141.5,26.1667 141.5,29.8333 141.5,33.5C 140.683,31.0314 140.183,28.3647 140,25.5C 138.562,26.9003 137.729,28.567 137.5,30.5C 136.778,30.0825 136.278,29.4158 136,28.5C 135.348,31.594 135.682,34.594 137,37.5C 137.49,36.2068 137.657,34.8734 137.5,33.5C 138.793,35.3635 138.793,37.3635 137.5,39.5C 137.167,39.3333 136.833,39.1667 136.5,39C 135.472,35.5637 134.139,32.397 132.5,29.5C 134.509,28.0921 136.509,26.5921 138.5,25C 138.164,23.9701 137.497,23.4701 136.5,23.5C 137.91,22.1716 139.076,22.5049 140,24.5C 140.483,23.552 140.649,22.552 140.5,21.5C 143.059,21.1984 145.393,21.5318 147.5,22.5 Z"/></g>
<g><path style="opacity:0.082" fill="#e3e3e3" d="M 127.5,29.5 C 127.655,32.8531 126.988,33.1864 125.5,30.5C 126.167,30.1667 126.833,29.8333 127.5,29.5 Z"/></g>
<g><path style="opacity:0.251" fill="#cbcbcb" d="M 159.5,19.5 C 159.184,22.9783 159.684,26.3117 161,29.5C 161.232,28.2625 161.732,27.2625 162.5,26.5C 162.635,28.5542 161.968,30.2209 160.5,31.5C 159.512,30.205 158.512,28.8717 157.5,27.5C 158.833,27.1667 158.833,26.8333 157.5,26.5C 158.065,24.0479 158.732,21.7146 159.5,19.5 Z"/></g>
<g><path style="opacity:0.518" fill="#b4b4b4" d="M 111.5,29.5 C 110.908,32.6305 111.908,34.9639 114.5,36.5C 114.5,36.8333 114.5,37.1667 114.5,37.5C 111.647,36.8114 109.981,34.978 109.5,32C 110.066,31.0053 110.733,30.172 111.5,29.5 Z"/></g>
<g><path style="opacity:0.125" fill="#cccccc" d="M 153.5,29.5 C 154.906,29.9731 155.573,30.9731 155.5,32.5C 154.094,32.0269 153.427,31.0269 153.5,29.5 Z"/></g>
<g><path style="opacity:0.922" fill="#1e1e1e" d="M 137.5,30.5 C 137.5,31.5 137.5,32.5 137.5,33.5C 137.657,34.8734 137.49,36.2068 137,37.5C 135.682,34.594 135.348,31.594 136,28.5C 136.278,29.4158 136.778,30.0825 137.5,30.5 Z"/></g>
<g><path style="opacity:1" fill="#2c2c2c" d="M 119.5,30.5 C 122.484,33.5209 122.151,34.5209 118.5,33.5C 117.713,31.8958 116.38,31.2291 114.5,31.5C 114.263,32.791 114.596,33.791 115.5,34.5C 116.167,34.5 116.5,34.8333 116.5,35.5C 115.508,35.3284 114.842,35.6618 114.5,36.5C 111.908,34.9639 110.908,32.6305 111.5,29.5C 114.474,26.6908 117.141,27.0242 119.5,30.5 Z"/></g>
<g><path style="opacity:0.106" fill="#d0d0d0" d="M 118.5,33.5 C 117.504,33.5858 116.671,33.2524 116,32.5C 115.536,33.0944 115.369,33.7611 115.5,34.5C 114.596,33.791 114.263,32.791 114.5,31.5C 116.38,31.2291 117.713,31.8958 118.5,33.5 Z"/></g>
<g><path style="opacity:0.998" fill="#4c4c4c" d="M 116.5,35.5 C 118.816,36.8056 121.15,38.1389 123.5,39.5C 123.5,39.8333 123.5,40.1667 123.5,40.5C 124.85,41.6499 124.684,42.3166 123,42.5C 121.269,41.259 119.436,40.259 117.5,39.5C 115.973,39.573 114.973,38.9063 114.5,37.5C 114.5,37.1667 114.5,36.8333 114.5,36.5C 114.842,35.6618 115.508,35.3284 116.5,35.5 Z"/></g>
<g><path style="opacity:0.047" fill="#e0e0e0" d="M 185.5,31.5 C 186.167,39.5 186.833,47.5 187.5,55.5C 187.631,56.3764 187.298,57.0431 186.5,57.5C 185.502,48.8589 185.169,40.1922 185.5,31.5 Z"/></g>
<g><path style="opacity:0.561" fill="#979797" d="M 189.5,31.5 C 190.163,33.6413 190.497,35.9746 190.5,38.5C 190.637,42.4473 189.97,46.114 188.5,49.5C 189.241,43.5293 189.575,37.5293 189.5,31.5 Z"/></g>
<g><path style="opacity:0.518" fill="#a6a6a6" d="M 156.5,34.5 C 157.222,34.9175 157.722,35.5842 158,36.5C 158.499,40.8206 158.666,45.1539 158.5,49.5C 157.513,44.6804 156.847,39.6804 156.5,34.5 Z"/></g>
<g><path style="opacity:0.522" fill="#878787" d="M 198.5,38.5 C 199.906,38.9731 200.573,39.9731 200.5,41.5C 199.094,41.0269 198.427,40.0269 198.5,38.5 Z"/></g>
<g><path style="opacity:0.929" fill="#767676" d="M 131.5,35.5 C 132.468,37.6074 132.802,39.9407 132.5,42.5C 132.768,44.099 132.434,45.4324 131.5,46.5C 130.857,44.9236 129.857,43.5903 128.5,42.5C 128.651,39.2819 129.484,38.9485 131,41.5C 131.495,39.5273 131.662,37.5273 131.5,35.5 Z"/></g>
<g><path style="opacity:0.049" fill="#cacaca" d="M 123.5,29.5 C 122.761,29.369 122.094,29.5357 121.5,30C 123.839,33.4913 125.505,37.3247 126.5,41.5C 126.957,42.2975 127.624,42.6309 128.5,42.5C 127.976,44.3057 127.309,45.9724 126.5,47.5C 126.5,46.1667 126.5,44.8333 126.5,43.5C 124.5,43.5 122.5,43.5 120.5,43.5C 120.342,46.9023 120.676,50.2356 121.5,53.5C 120.833,53.5 120.5,53.8333 120.5,54.5C 119.326,53.4863 118.66,52.153 118.5,50.5C 119.769,48.7428 119.769,47.7428 118.5,47.5C 117.833,47.5 117.167,47.5 116.5,47.5C 116.821,45.9519 117.821,45.2852 119.5,45.5C 119.747,43.1417 119.081,41.1417 117.5,39.5C 119.436,40.259 121.269,41.259 123,42.5C 124.684,42.3166 124.85,41.6499 123.5,40.5C 124.833,40.1667 124.833,39.8333 123.5,39.5C 123.657,38.1266 123.49,36.7932 123,35.5C 120.892,36.6123 119.392,35.9457 118.5,33.5C 122.151,34.5209 122.484,33.5209 119.5,30.5C 120.156,29.7222 120.989,29.0556 122,28.5C 122.765,28.5699 123.265,28.9033 123.5,29.5 Z"/></g>
<g><path style="opacity:0.998" fill="#222222" d="M 126.5,47.5 C 125.5,48.8333 124.5,48.8333 123.5,47.5C 122.528,46.2486 121.861,46.582 121.5,48.5C 121.543,49.4164 121.876,50.0831 122.5,50.5C 123.674,51.5137 124.34,52.847 124.5,54.5C 124.631,55.2389 124.464,55.9056 124,56.5C 123.623,55.0577 122.79,54.0577 121.5,53.5C 120.676,50.2356 120.342,46.9023 120.5,43.5C 122.5,43.5 124.5,43.5 126.5,43.5C 126.5,44.8333 126.5,46.1667 126.5,47.5 Z"/></g>
<g><path style="opacity:0.169" fill="#bbbbbb" d="M 200.5,41.5 C 201.906,41.9731 202.573,42.9731 202.5,44.5C 201.094,44.0269 200.427,43.0269 200.5,41.5 Z"/></g>
<g><path style="opacity:0.006" fill="#f1f1f1" d="M 160.5,44.5 C 161.167,46.5 161.833,48.5 162.5,50.5C 162.5,52.5 162.5,54.5 162.5,56.5C 161.71,55.3915 161.21,54.0581 161,52.5C 160.333,53.8333 159.667,53.8333 159,52.5C 158.517,51.552 158.351,50.552 158.5,49.5C 159.222,49.9175 159.722,50.5842 160,51.5C 160.497,49.1902 160.663,46.8568 160.5,44.5 Z"/></g>
<g><path style="opacity:0.998" fill="#292929" d="M 165.5,43.5 C 166.497,43.4701 167.164,43.9701 167.5,45C 167.011,46.1385 166.678,47.3052 166.5,48.5C 166.672,49.4916 166.338,50.1583 165.5,50.5C 164.778,50.9175 164.278,51.5842 164,52.5C 163.505,50.5273 163.338,48.5273 163.5,46.5C 164.906,46.0269 165.573,45.0269 165.5,43.5 Z"/></g>
<g><path style="opacity:0.275" fill="#b4b4b4" d="M 165.5,43.5 C 165.573,45.0269 164.906,46.0269 163.5,46.5C 163.427,44.9731 164.094,43.9731 165.5,43.5 Z"/></g>
<g><path style="opacity:0.486" fill="#b8b8b8" d="M 132.5,42.5 C 133.793,44.3635 133.793,46.3635 132.5,48.5C 131.702,48.0431 131.369,47.3764 131.5,46.5C 132.434,45.4324 132.768,44.099 132.5,42.5 Z"/></g>
<g><path style="opacity:0.086" fill="#c9c9c9" d="M 141.5,33.5 C 143.23,38.5695 144.23,43.9029 144.5,49.5C 142.656,44.4491 141.656,39.1157 141.5,33.5 Z"/></g>
<g><path style="opacity:0.12" fill="#cacaca" d="M 195.5,29.5 C 194.086,31.5983 194.752,32.5983 197.5,32.5C 197.167,33.1667 196.833,33.8333 196.5,34.5C 193.887,32.9786 192.554,33.812 192.5,37C 192.667,37.8333 192.833,38.6667 193,39.5C 193.333,39.1667 193.667,38.8333 194,38.5C 194.176,42.6877 194.676,46.6877 195.5,50.5C 195.719,51.675 195.386,52.675 194.5,53.5C 193.799,47.9402 192.799,42.4402 191.5,37C 191.354,34.9658 192.02,33.2991 193.5,32C 192.588,30.3745 193.255,29.5412 195.5,29.5 Z"/></g>
<g><path style="opacity:0.141" fill="#c9c9c9" d="M 123.5,47.5 C 122.596,48.209 122.263,49.209 122.5,50.5C 121.876,50.0831 121.543,49.4164 121.5,48.5C 121.861,46.582 122.528,46.2486 123.5,47.5 Z"/></g>
<g><path style="opacity:0.999" fill="#242424" d="M 116.5,47.5 C 117.167,47.5 117.833,47.5 118.5,47.5C 118.5,48.5 118.5,49.5 118.5,50.5C 118.66,52.153 119.326,53.4863 120.5,54.5C 120.263,55.791 120.596,56.791 121.5,57.5C 121.649,58.552 121.483,59.552 121,60.5C 120.385,58.8839 119.385,57.5505 118,56.5C 117.595,58.7749 118.095,60.7749 119.5,62.5C 119.263,63.791 119.596,64.791 120.5,65.5C 120.5,66.1667 120.833,66.5 121.5,66.5C 121.5,67.8333 121.5,69.1667 121.5,70.5C 121.42,73.7814 122.087,76.7814 123.5,79.5C 124.902,85.4739 126.569,91.4739 128.5,97.5C 128.427,99.0269 129.094,100.027 130.5,100.5C 132.167,101.5 133.5,102.833 134.5,104.5C 134.833,105.5 135.5,106.167 136.5,106.5C 137.5,106.833 138.167,107.5 138.5,108.5C 138.576,111.767 137.243,113.101 134.5,112.5C 135.645,111.109 135.645,109.776 134.5,108.5C 133.575,109.357 132.908,110.357 132.5,111.5C 130.115,109.699 127.782,108.032 125.5,106.5C 125.5,105.833 125.833,105.5 126.5,105.5C 128.226,105.815 129.893,105.981 131.5,106C 129.63,103.96 127.63,102.127 125.5,100.5C 124.342,97.0111 123.009,93.6777 121.5,90.5C 120.549,89.0813 120.216,87.4147 120.5,85.5C 120.514,76.5701 118.514,68.2368 114.5,60.5C 114.5,60.1667 114.5,59.8333 114.5,59.5C 115.051,56.1933 115.384,52.8599 115.5,49.5C 115.328,48.5084 115.662,47.8417 116.5,47.5 Z"/></g>
<g><path style="opacity:0.365" fill="#b8b8b8" d="M 168.5,33.5 C 168.177,39.69 168.51,45.69 169.5,51.5C 169.688,53.1033 169.188,54.4366 168,55.5C 167.814,52.9644 167.314,50.631 166.5,48.5C 166.678,47.3052 167.011,46.1385 167.5,45C 167.164,43.9701 166.497,43.4701 165.5,43.5C 166.989,40.2963 167.989,36.963 168.5,33.5 Z"/></g>
<g><path style="opacity:0.008" fill="#dbdbdb" d="M 144.5,49.5 C 145.167,50.5 145.833,51.5 146.5,52.5C 146.44,53.0431 146.107,53.3764 145.5,53.5C 144.571,52.3112 144.238,50.9778 144.5,49.5 Z"/></g>
<g><path style="opacity:0.965" fill="#717171" d="M 163.5,46.5 C 163.338,48.5273 163.505,50.5273 164,52.5C 164.278,51.5842 164.778,50.9175 165.5,50.5C 165.313,52.5643 164.813,54.5643 164,56.5C 163.31,57.7383 162.81,57.7383 162.5,56.5C 162.5,54.5 162.5,52.5 162.5,50.5C 162.232,48.901 162.566,47.5676 163.5,46.5 Z"/></g>
<g><path style="opacity:0.647" fill="#adadad" d="M 115.5,49.5 C 115.384,52.8599 115.051,56.1933 114.5,59.5C 113.29,56.0702 113.624,52.7369 115.5,49.5 Z"/></g>
<g><path style="opacity:0.082" fill="#d7d7d7" d="M 198.5,67.5 C 198.666,60.4921 198.5,53.4921 198,46.5C 197.667,45.8333 197.333,45.1667 197,44.5C 196.802,46.3817 196.302,48.0484 195.5,49.5C 195.148,46.9272 195.648,44.5938 197,42.5C 197.915,43.3279 198.581,44.3279 199,45.5C 199.822,53.0118 199.655,60.3451 198.5,67.5 Z"/></g>
<g><path style="opacity:0.795" fill="#898989" d="M 202.5,45.5 C 204.476,52.8093 204.476,60.1427 202.5,67.5C 202.5,60.1667 202.5,52.8333 202.5,45.5 Z"/></g>
<g><path style="opacity:0.004" fill="#bcbcbc" d="M 121.5,53.5 C 122.79,54.0577 123.623,55.0577 124,56.5C 124.464,55.9056 124.631,55.2389 124.5,54.5C 125.782,55.7082 125.782,57.0416 124.5,58.5C 123.817,58.1373 123.15,57.8039 122.5,57.5C 122.167,54.8333 121.833,54.8333 121.5,57.5C 120.596,56.791 120.263,55.791 120.5,54.5C 121.167,54.5 121.5,54.1667 121.5,53.5 Z"/></g>
<g><path style="opacity:0.949" fill="#a3a3a3" d="M 121.5,57.5 C 121.833,57.5 122.167,57.5 122.5,57.5C 123.084,60.6699 123.75,63.8365 124.5,67C 124.167,67.8333 123.833,68.6667 123.5,69.5C 122.824,68.3984 122.158,67.3984 121.5,66.5C 121.539,64.7761 121.206,64.4427 120.5,65.5C 119.596,64.791 119.263,63.791 119.5,62.5C 118.095,60.7749 117.595,58.7749 118,56.5C 119.385,57.5505 120.385,58.8839 121,60.5C 121.483,59.552 121.649,58.552 121.5,57.5 Z"/></g>
<g><path style="opacity:0.999" fill="#303030" d="M 196.5,34.5 C 197.6,35.6049 198.267,36.9382 198.5,38.5C 198.427,40.0269 199.094,41.0269 200.5,41.5C 200.427,43.0269 201.094,44.0269 202.5,44.5C 202.5,44.8333 202.5,45.1667 202.5,45.5C 202.5,52.8333 202.5,60.1667 202.5,67.5C 201.788,74.563 200.621,81.563 199,88.5C 198.356,92.6188 196.856,96.2855 194.5,99.5C 193.29,99.0679 192.29,98.4013 191.5,97.5C 191.557,96.391 191.89,95.391 192.5,94.5C 194.163,92.5615 194.829,90.2282 194.5,87.5C 195.215,80.5893 196.549,73.9227 198.5,67.5C 199.655,60.3451 199.822,53.0118 199,45.5C 198.581,44.3279 197.915,43.3279 197,42.5C 195.648,44.5938 195.148,46.9272 195.5,49.5C 195.5,49.8333 195.5,50.1667 195.5,50.5C 194.676,46.6877 194.176,42.6877 194,38.5C 193.667,38.8333 193.333,39.1667 193,39.5C 192.833,38.6667 192.667,37.8333 192.5,37C 192.554,33.812 193.887,32.9786 196.5,34.5 Z"/></g>
<g><path style="opacity:0.063" fill="#c4c4c4" d="M 114.5,60.5 C 118.514,68.2368 120.514,76.5701 120.5,85.5C 118.684,77.2332 116.684,68.8999 114.5,60.5 Z"/></g>
<g><path style="opacity:0.999" fill="#222222" d="M 142.5,72.5 C 141.833,73.5 141.167,74.5 140.5,75.5C 138.595,79.7491 139.929,82.0824 144.5,82.5C 145.496,82.5858 146.329,82.2524 147,81.5C 147.21,79.9419 147.71,78.6085 148.5,77.5C 150.659,89.6715 145.659,94.3382 133.5,91.5C 128.683,87.4741 127.349,82.4741 129.5,76.5C 130.833,75.8333 131.833,74.8333 132.5,73.5C 134.117,72.0277 136.117,71.361 138.5,71.5C 140.045,71.5108 141.378,71.8442 142.5,72.5 Z"/></g>
<g><path style="opacity:0.999" fill="#181818" d="M 185.5,72.5 C 184.833,73.1667 184.167,73.8333 183.5,74.5C 182.504,74.4142 181.671,74.7476 181,75.5C 180.22,77.3869 180.387,79.0536 181.5,80.5C 182.167,80.5 182.5,80.8333 182.5,81.5C 184.288,82.6225 186.288,82.7891 188.5,82C 189.078,80.583 190.078,79.7496 191.5,79.5C 193.125,85.2826 191.125,89.2826 185.5,91.5C 181.766,91.6773 178.099,91.3439 174.5,90.5C 174.167,89.5 173.5,88.8333 172.5,88.5C 172.167,87.1667 171.833,85.8333 171.5,84.5C 171.155,80.8849 171.822,77.5516 173.5,74.5C 175.027,74.573 176.027,73.9063 176.5,72.5C 179.5,71.1667 182.5,71.1667 185.5,72.5 Z"/></g>
<g><path style="opacity:0.78" fill="#878787" d="M 176.5,72.5 C 176.027,73.9063 175.027,74.573 173.5,74.5C 173.973,73.0937 174.973,72.427 176.5,72.5 Z"/></g>
<g><path style="opacity:0.039" fill="#dfdfdf" d="M 185.5,72.5 C 186.043,72.56 186.376,72.8933 186.5,73.5C 185.675,74.3857 184.675,74.719 183.5,74.5C 184.167,73.8333 184.833,73.1667 185.5,72.5 Z"/></g>
<g><path style="opacity:0.894" fill="#898989" d="M 121.5,70.5 C 122.913,73.2186 123.58,76.2186 123.5,79.5C 122.087,76.7814 121.42,73.7814 121.5,70.5 Z"/></g>
<g><path style="opacity:0.014" fill="#c8c8c8" d="M 142.5,72.5 C 144.048,72.8212 144.715,73.8212 144.5,75.5C 143.167,75.5 141.833,75.5 140.5,75.5C 141.167,74.5 141.833,73.5 142.5,72.5 Z"/></g>
<g><path style="opacity:0.369" fill="#b7b7b7" d="M 132.5,73.5 C 131.833,74.8333 130.833,75.8333 129.5,76.5C 129.5,74.5 130.5,73.5 132.5,73.5 Z"/></g>
<g><path style="opacity:0.145" fill="#d0d0d0" d="M 183.5,74.5 C 181.919,76.1417 181.253,78.1417 181.5,80.5C 180.387,79.0536 180.22,77.3869 181,75.5C 181.671,74.7476 182.504,74.4142 183.5,74.5 Z"/></g>
<g><path style="opacity:0.392" fill="#c8c8c8" d="M 148.5,77.5 C 147.71,78.6085 147.21,79.9419 147,81.5C 146.329,82.2524 145.496,82.5858 144.5,82.5C 145.794,80.704 146.794,78.704 147.5,76.5C 148.107,76.6236 148.44,76.9569 148.5,77.5 Z"/></g>
<g><path style="opacity:0.859" fill="#5d5d5d" d="M 173.5,74.5 C 171.822,77.5516 171.155,80.8849 171.5,84.5C 170.539,82.7354 170.205,80.7354 170.5,78.5C 170.738,76.5956 171.738,75.2623 173.5,74.5 Z"/></g>
<g><path style="opacity:0.009" fill="#cbcbcb" d="M 191.5,79.5 C 190.078,79.7496 189.078,80.583 188.5,82C 186.288,82.7891 184.288,82.6225 182.5,81.5C 186.789,82.5168 189.122,80.8502 189.5,76.5C 190.919,77.0047 191.585,78.0047 191.5,79.5 Z"/></g>
<g><path style="opacity:0.212" fill="#c9c9c9" d="M 170.5,78.5 C 170.205,80.7354 170.539,82.7354 171.5,84.5C 171.833,85.8333 172.167,87.1667 172.5,88.5C 171.21,87.9423 170.377,86.9423 170,85.5C 169.204,82.9615 169.371,80.6282 170.5,78.5 Z"/></g>
<g><path style="opacity:0.18" fill="#c8c8c8" d="M 129.5,76.5 C 127.349,82.4741 128.683,87.4741 133.5,91.5C 130.909,90.7457 129.076,89.079 128,86.5C 127.333,83.5 127.333,80.5 128,77.5C 128.383,76.944 128.883,76.6107 129.5,76.5 Z"/></g>
<g><path style="opacity:0.008" fill="#e0e0e0" d="M 172.5,88.5 C 173.5,88.8333 174.167,89.5 174.5,90.5C 173.167,90.5 172.5,89.8333 172.5,88.5 Z"/></g>
<g><path style="opacity:0.647" fill="#a8a8a8" d="M 174.5,90.5 C 178.099,91.3439 181.766,91.6773 185.5,91.5C 181.619,94.075 177.952,93.7417 174.5,90.5 Z"/></g>
<g><path style="opacity:0.663" fill="#adadad" d="M 194.5,87.5 C 194.829,90.2282 194.163,92.5615 192.5,94.5C 192.721,91.9327 193.388,89.5994 194.5,87.5 Z"/></g>
<g><path style="opacity:0.008" fill="#d4d4d4" d="M 121.5,90.5 C 123.009,93.6777 124.342,97.0111 125.5,100.5C 122.819,97.8082 121.486,94.4748 121.5,90.5 Z"/></g>
<g><path style="opacity:0.286" fill="#b8b8b8" d="M 128.5,97.5 C 129.906,97.9731 130.573,98.9731 130.5,100.5C 129.094,100.027 128.427,99.0269 128.5,97.5 Z"/></g>
<g><path style="opacity:1" fill="#1c1c1c" d="M 192.5,102.5 C 190.367,104.091 188.701,106.091 187.5,108.5C 187.167,109.167 186.833,109.833 186.5,110.5C 186.167,110.5 185.833,110.5 185.5,110.5C 183.883,111.038 182.216,111.371 180.5,111.5C 180.082,110.778 179.416,110.278 178.5,110C 179.056,109.617 179.389,109.117 179.5,108.5C 179.842,107.662 180.508,107.328 181.5,107.5C 185.067,105.443 188.234,102.777 191,99.5C 192.039,100.244 192.539,101.244 192.5,102.5 Z"/></g>
<g><path style="opacity:0.031" fill="#b9b9b9" d="M 125.5,100.5 C 127.63,102.127 129.63,103.96 131.5,106C 129.893,105.981 128.226,105.815 126.5,105.5C 126.611,104.883 126.944,104.383 127.5,104C 126.177,103.184 125.511,102.017 125.5,100.5 Z"/></g>
<g><path style="opacity:0.694" fill="#6f6f6f" d="M 191.5,97.5 C 192.29,98.4013 193.29,99.0679 194.5,99.5C 194.573,101.027 193.906,102.027 192.5,102.5C 192.539,101.244 192.039,100.244 191,99.5C 188.234,102.777 185.067,105.443 181.5,107.5C 184.5,103.833 187.833,100.5 191.5,97.5 Z"/></g>
<g><path style="opacity:0.004" fill="#c3c3c3" d="M 134.5,104.5 C 135.833,104.5 136.5,105.167 136.5,106.5C 135.5,106.167 134.833,105.5 134.5,104.5 Z"/></g>
<g><path style="opacity:0.988" fill="#828282" d="M 194.5,103.5 C 196.895,102.186 199.395,102.186 202,103.5C 201.847,106.174 201.347,108.84 200.5,111.5C 198.412,110.061 196.079,109.394 193.5,109.5C 195.158,108.819 196.825,107.985 198.5,107C 197.207,106.51 195.873,106.343 194.5,106.5C 196.148,105.073 198.148,104.24 200.5,104C 198.527,103.505 196.527,103.338 194.5,103.5 Z"/></g>
<g><path style="opacity:0.063" fill="#b9b9b9" d="M 192.5,102.5 C 192.5,103.167 192.833,103.5 193.5,103.5C 192.524,104.815 191.524,106.148 190.5,107.5C 190.624,108.107 190.957,108.44 191.5,108.5C 190.766,109.708 190.433,111.041 190.5,112.5C 189.85,112.804 189.183,113.137 188.5,113.5C 187.304,113.154 187.304,112.654 188.5,112C 187.906,111.536 187.239,111.369 186.5,111.5C 186.5,111.167 186.5,110.833 186.5,110.5C 188.424,110.289 188.757,109.623 187.5,108.5C 188.701,106.091 190.367,104.091 192.5,102.5 Z"/></g>
<g><path style="opacity:0.976" fill="#2e2e2e" d="M 193.5,103.5 C 193.833,103.5 194.167,103.5 194.5,103.5C 196.527,103.338 198.527,103.505 200.5,104C 198.148,104.24 196.148,105.073 194.5,106.5C 193.71,107.401 192.71,108.068 191.5,108.5C 190.957,108.44 190.624,108.107 190.5,107.5C 191.524,106.148 192.524,104.815 193.5,103.5 Z"/></g>
<g><path style="opacity:0.153" fill="#cccccc" d="M 125.5,106.5 C 127.782,108.032 130.115,109.699 132.5,111.5C 132.167,112.167 131.833,112.833 131.5,113.5C 130.086,111.946 128.419,110.612 126.5,109.5C 125.702,109.957 125.369,110.624 125.5,111.5C 124.167,109.833 124.167,108.167 125.5,106.5 Z"/></g>
<g><path style="opacity:0.659" fill="#c3c3c3" d="M 179.5,108.5 C 179.389,109.117 179.056,109.617 178.5,110C 179.416,110.278 180.082,110.778 180.5,111.5C 179.178,111.67 178.011,111.337 177,110.5C 176.506,112.134 176.34,113.801 176.5,115.5C 175.549,114.081 175.216,112.415 175.5,110.5C 173.833,110.5 172.167,110.5 170.5,110.5C 173.405,108.85 176.405,108.183 179.5,108.5 Z"/></g>
<g><path style="opacity:0.312" fill="#acacac" d="M 193.5,109.5 C 194.167,110.167 194.833,110.833 195.5,111.5C 194.325,111.719 193.325,111.386 192.5,110.5C 192.624,109.893 192.957,109.56 193.5,109.5 Z"/></g>
<g><path style="opacity:0.973" fill="#454545" d="M 157.5,111.5 C 156.618,113.084 155.785,114.751 155,116.5C 154.506,114.866 154.34,113.199 154.5,111.5C 155.5,110.167 156.5,110.167 157.5,111.5 Z"/></g>
<g><path style="opacity:0.02" fill="#e3e3e3" d="M 185.5,110.5 C 185.5,110.833 185.5,111.167 185.5,111.5C 184.194,112.467 183.527,113.801 183.5,115.5C 182.557,114.117 181.557,112.784 180.5,111.5C 182.216,111.371 183.883,111.038 185.5,110.5 Z"/></g>
<g><path style="opacity:0.196" fill="#c2c2c2" d="M 126.5,112.5 C 128.982,114.085 129.648,116.085 128.5,118.5C 127.833,116.5 127.167,114.5 126.5,112.5 Z"/></g>
<g><path style="opacity:0.998" fill="#242424" d="M 193.5,109.5 C 196.079,109.394 198.412,110.061 200.5,111.5C 203.124,113.198 203.124,115.031 200.5,117C 197.633,117.801 194.966,117.634 192.5,116.5C 191.791,115.596 190.791,115.263 189.5,115.5C 189.263,116.791 189.596,117.791 190.5,118.5C 191.338,118.842 191.672,119.508 191.5,120.5C 191.427,122.027 192.094,123.027 193.5,123.5C 195.341,125.849 196.674,128.515 197.5,131.5C 198.008,134.176 198.175,136.843 198,139.5C 197,138.5 196,137.5 195,136.5C 194.536,137.094 194.369,137.761 194.5,138.5C 194.675,140.621 194.341,142.621 193.5,144.5C 192.189,148.683 192.189,153.016 193.5,157.5C 194.169,155.369 194.835,153.369 195.5,151.5C 195.215,153.288 195.548,154.955 196.5,156.5C 197.107,156.376 197.44,156.043 197.5,155.5C 197.5,154.833 197.5,154.167 197.5,153.5C 197.5,152.833 197.5,152.167 197.5,151.5C 198.117,151.611 198.617,151.944 199,152.5C 199.495,154.473 199.662,156.473 199.5,158.5C 199.5,159.167 199.167,159.5 198.5,159.5C 194.548,160.272 190.548,160.605 186.5,160.5C 186.198,157.941 186.532,155.607 187.5,153.5C 187.5,154.833 187.5,156.167 187.5,157.5C 188.833,157.5 190.167,157.5 191.5,157.5C 191.095,149.532 191.762,141.698 193.5,134C 193.333,132.5 193.167,131 193,129.5C 192.617,128.944 192.117,128.611 191.5,128.5C 191.244,126.224 189.91,125.057 187.5,125C 190.018,123.86 190.018,122.694 187.5,121.5C 186.662,121.158 186.328,120.492 186.5,119.5C 186.446,117.368 185.446,116.035 183.5,115.5C 183.527,113.801 184.194,112.467 185.5,111.5C 185.833,111.5 186.167,111.5 186.5,111.5C 187.239,111.369 187.906,111.536 188.5,112C 187.304,112.654 187.304,113.154 188.5,113.5C 189.183,113.137 189.85,112.804 190.5,112.5C 192.292,112.366 193.958,112.699 195.5,113.5C 196.386,114.776 197.386,114.776 198.5,113.5C 197.995,112.081 196.995,111.415 195.5,111.5C 194.833,110.833 194.167,110.167 193.5,109.5 Z"/></g>
<g><path style="opacity:0.22" fill="#b4b4b4" d="M 195.5,111.5 C 196.995,111.415 197.995,112.081 198.5,113.5C 197.386,114.776 196.386,114.776 195.5,113.5C 196.506,113.062 196.506,112.396 195.5,111.5 Z"/></g>
<g><path style="opacity:0.024" fill="#c6c6c6" d="M 145.5,109.5 C 144.448,109.351 143.448,109.517 142.5,110C 143.574,110.739 144.241,111.739 144.5,113C 143.873,115.135 143.373,117.302 143,119.5C 142.329,120.252 141.496,120.586 140.5,120.5C 141.8,119.399 142.3,118.066 142,116.5C 140.644,117.38 139.144,117.714 137.5,117.5C 138.263,116.732 139.263,116.232 140.5,116C 141.738,115.31 141.738,114.81 140.5,114.5C 141.263,113.732 142.263,113.232 143.5,113C 141.337,110.022 139.337,110.355 137.5,114C 138.094,114.464 138.761,114.631 139.5,114.5C 137.167,115.833 134.833,115.833 132.5,114.5C 133.833,113.5 133.833,112.5 132.5,111.5C 132.908,110.357 133.575,109.357 134.5,108.5C 135.645,109.776 135.645,111.109 134.5,112.5C 137.243,113.101 138.576,111.767 138.5,108.5C 141.049,107.35 143.383,107.684 145.5,109.5 Z M 140.5,114.5 C 140.167,114.5 139.833,114.5 139.5,114.5C 138.761,114.631 138.094,114.464 137.5,114C 139.337,110.355 141.337,110.022 143.5,113C 142.263,113.232 141.263,113.732 140.5,114.5 Z"/></g>
<g><path style="opacity:0.745" fill="#a0a0a0" d="M 183.5,115.5 C 185.446,116.035 186.446,117.368 186.5,119.5C 185.026,118.564 184.026,117.23 183.5,115.5 Z"/></g>
<g><path style="opacity:0.173" fill="#c5c5c5" d="M 192.5,116.5 C 191.167,116.5 190.5,117.167 190.5,118.5C 189.596,117.791 189.263,116.791 189.5,115.5C 190.791,115.263 191.791,115.596 192.5,116.5 Z"/></g>
<g><path style="opacity:0.38" fill="#b3b3b3" d="M 169.5,110.5 C 168.391,111.29 167.058,111.79 165.5,112C 168.146,112.497 170.813,112.664 173.5,112.5C 173.5,114.167 173.5,115.833 173.5,117.5C 172.71,116.391 172.21,115.058 172,113.5C 171.626,114.416 171.126,115.25 170.5,116C 164.976,115.951 161.643,118.451 160.5,123.5C 160.737,119.727 160.237,116.06 159,112.5C 159.367,115.665 159.201,118.665 158.5,121.5C 158.628,119.345 158.128,117.345 157,115.5C 156.751,116.624 156.251,117.624 155.5,118.5C 153.664,117.972 151.997,117.306 150.5,116.5C 149.041,116.567 147.708,116.234 146.5,115.5C 148.305,113.803 150.639,112.97 153.5,113C 152.944,112.617 152.611,112.117 152.5,111.5C 153.167,111.5 153.833,111.5 154.5,111.5C 154.34,113.199 154.506,114.866 155,116.5C 155.785,114.751 156.618,113.084 157.5,111.5C 161.543,111.248 165.543,110.915 169.5,110.5 Z"/></g>
<g><path style="opacity:0.584" fill="#4d4d4d" d="M 150.5,116.5 C 150.082,115.778 149.416,115.278 148.5,115C 150.289,114.48 151.956,114.813 153.5,116C 152.552,116.483 151.552,116.649 150.5,116.5 Z"/></g>
<g><path style="opacity:0.997" fill="#353535" d="M 145.5,109.5 C 148.152,109.41 150.485,110.076 152.5,111.5C 152.611,112.117 152.944,112.617 153.5,113C 150.639,112.97 148.305,113.803 146.5,115.5C 145.833,119.167 145.167,122.833 144.5,126.5C 148.749,129.39 148.416,130.556 143.5,130C 143.957,130.414 144.291,130.914 144.5,131.5C 142.995,132.842 142.328,134.508 142.5,136.5C 142.5,136.833 142.5,137.167 142.5,137.5C 142.167,137.5 141.833,137.5 141.5,137.5C 141.719,136.325 141.386,135.325 140.5,134.5C 139.675,136.36 138.675,138.026 137.5,139.5C 137.595,137.214 138.262,135.214 139.5,133.5C 140.043,133.44 140.376,133.107 140.5,132.5C 139.624,131.749 138.624,131.249 137.5,131C 138.056,130.617 138.389,130.117 138.5,129.5C 138.842,128.662 139.508,128.328 140.5,128.5C 141.993,123.584 140.993,123.25 137.5,127.5C 136.306,128.272 135.306,129.272 134.5,130.5C 133.646,131.632 133.646,132.965 134.5,134.5C 132.631,132.365 131.964,129.698 132.5,126.5C 133.708,125.766 135.041,125.433 136.5,125.5C 140.07,124.744 140.737,123.411 138.5,121.5C 138.842,120.662 139.508,120.328 140.5,120.5C 141.496,120.586 142.329,120.252 143,119.5C 143.373,117.302 143.873,115.135 144.5,113C 144.241,111.739 143.574,110.739 142.5,110C 143.448,109.517 144.448,109.351 145.5,109.5 Z M 140.5,128.5 C 139.508,128.328 138.842,128.662 138.5,129.5C 136.983,129.511 135.816,130.177 135,131.5C 134.601,131.272 134.435,130.938 134.5,130.5C 135.306,129.272 136.306,128.272 137.5,127.5C 138.496,127.586 139.329,127.252 140,126.5C 140.464,127.094 140.631,127.761 140.5,128.5 Z"/></g>
<g><path style="opacity:0.997" fill="#232323" d="M 160.5,123.5 C 160.5,124.833 160.5,126.167 160.5,127.5C 160.607,129.379 160.107,129.712 159,128.5C 158.503,126.19 158.337,123.857 158.5,121.5C 159.201,118.665 159.367,115.665 159,112.5C 160.237,116.06 160.737,119.727 160.5,123.5 Z"/></g>
<g><path style="opacity:0.302" fill="#a7a7a7" d="M 191.5,120.5 C 192.906,120.973 193.573,121.973 193.5,123.5C 192.094,123.027 191.427,122.027 191.5,120.5 Z"/></g>
<g><path style="opacity:0.039" fill="#cfcfcf" d="M 138.5,121.5 C 140.737,123.411 140.07,124.744 136.5,125.5C 136.157,123.517 136.824,122.183 138.5,121.5 Z"/></g>
<g><path style="opacity:0.025" fill="#e8e8e8" d="M 140.5,128.5 C 140.631,127.761 140.464,127.094 140,126.5C 139.329,127.252 138.496,127.586 137.5,127.5C 140.993,123.25 141.993,123.584 140.5,128.5 Z"/></g>
<g><path style="opacity:0.053" fill="#cecece" d="M 173.5,117.5 C 174.6,119.277 175.434,121.277 176,123.5C 177.209,123.653 178.375,123.986 179.5,124.5C 177.519,125.105 177.185,126.105 178.5,127.5C 177.504,127.586 176.671,127.252 176,126.5C 176.611,128.962 176.445,131.296 175.5,133.5C 175.768,131.901 175.434,130.568 174.5,129.5C 174.672,128.508 174.338,127.842 173.5,127.5C 173.953,126.542 174.619,125.708 175.5,125C 173.887,122.772 173.22,120.272 173.5,117.5 Z"/></g>
<g><path style="opacity:1" fill="#373737" d="M 169.5,110.5 C 169.833,110.5 170.167,110.5 170.5,110.5C 172.167,110.5 173.833,110.5 175.5,110.5C 175.216,112.415 175.549,114.081 176.5,115.5C 177.698,120.226 180.698,122.892 185.5,123.5C 186.436,127.735 186.769,132.069 186.5,136.5C 186.795,138.735 186.461,140.735 185.5,142.5C 184.532,140.393 184.198,138.059 184.5,135.5C 184.5,132.5 184.5,129.5 184.5,126.5C 184.179,124.952 183.179,124.285 181.5,124.5C 181.657,125.873 181.49,127.207 181,128.5C 180.79,126.942 180.29,125.609 179.5,124.5C 178.375,123.986 177.209,123.653 176,123.5C 175.434,121.277 174.6,119.277 173.5,117.5C 173.5,115.833 173.5,114.167 173.5,112.5C 170.813,112.664 168.146,112.497 165.5,112C 167.058,111.79 168.391,111.29 169.5,110.5 Z"/></g>
<g><path style="opacity:0.204" fill="#cdcdcd" d="M 116.5,124.5 C 115.595,125.702 115.595,127.036 116.5,128.5C 115.595,127.036 115.595,125.702 116.5,124.5 Z"/></g>
<g><path style="opacity:0.953" fill="#5f5f5f" d="M 123.5,124.5 C 122.411,126.117 120.744,126.95 118.5,127C 119.044,127.717 119.711,128.217 120.5,128.5C 121.167,128.5 121.5,128.833 121.5,129.5C 120.761,129.369 120.094,129.536 119.5,130C 121.466,131.347 121.799,132.847 120.5,134.5C 119.525,132.205 118.192,130.205 116.5,128.5C 115.595,127.036 115.595,125.702 116.5,124.5C 118.833,123.167 121.167,123.167 123.5,124.5 Z"/></g>
<g><path style="opacity:0.078" fill="#cccccc" d="M 126.5,122.5 C 126.297,124.044 125.63,125.378 124.5,126.5C 125.719,129.948 124.719,130.948 121.5,129.5C 122.376,129.631 123.043,129.298 123.5,128.5C 122.386,127.224 121.386,127.224 120.5,128.5C 119.711,128.217 119.044,127.717 118.5,127C 120.744,126.95 122.411,126.117 123.5,124.5C 124.5,123.833 125.5,123.167 126.5,122.5 Z"/></g>
<g><path style="opacity:0.098" fill="#bcbcbc" d="M 187.5,121.5 C 190.018,122.694 190.018,123.86 187.5,125C 189.91,125.057 191.244,126.224 191.5,128.5C 190.596,129.209 190.263,130.209 190.5,131.5C 189.732,130.737 189.232,129.737 189,128.5C 188.506,130.134 188.34,131.801 188.5,133.5C 187.833,134.5 187.167,135.5 186.5,136.5C 186.769,132.069 186.436,127.735 185.5,123.5C 186.833,123.5 187.5,122.833 187.5,121.5 Z"/></g>
<g><path style="opacity:0.071" fill="#c6c6c6" d="M 179.5,124.5 C 180.29,125.609 180.79,126.942 181,128.5C 181.49,127.207 181.657,125.873 181.5,124.5C 183.179,124.285 184.179,124.952 184.5,126.5C 183.883,126.389 183.383,126.056 183,125.5C 182.667,126.833 182.333,128.167 182,129.5C 181.049,129.884 180.216,130.217 179.5,130.5C 178.596,129.791 178.263,128.791 178.5,127.5C 179.404,126.791 179.737,125.791 179.5,124.5 Z"/></g>
<g><path style="opacity:0.055" fill="#d5d5d5" d="M 158.5,121.5 C 158.337,123.857 158.503,126.19 159,128.5C 160.107,129.712 160.607,129.379 160.5,127.5C 161.5,127.5 162.5,127.5 163.5,127.5C 163.281,126.325 163.614,125.325 164.5,124.5C 165.107,124.624 165.44,124.957 165.5,125.5C 164.36,127.045 163.36,128.712 162.5,130.5C 160.968,131.37 159.468,131.036 158,129.5C 157.761,130.788 158.261,131.788 159.5,132.5C 156.753,132.813 154.086,132.48 151.5,131.5C 153.655,130.999 155.322,129.999 156.5,128.5C 157.167,126.167 157.833,123.833 158.5,121.5 Z"/></g>
<g><path style="opacity:0.991" fill="#474747" d="M 165.5,125.5 C 167.494,128.568 170.161,129.235 173.5,127.5C 174.338,127.842 174.672,128.508 174.5,129.5C 174.027,130.906 173.027,131.573 171.5,131.5C 169.833,131.5 168.167,131.5 166.5,131.5C 164.901,131.768 163.568,131.434 162.5,130.5C 163.36,128.712 164.36,127.045 165.5,125.5 Z"/></g>
<g><path style="opacity:0.953" fill="#585858" d="M 129.5,127.5 C 129.833,127.5 130.167,127.5 130.5,127.5C 131.625,128.348 131.625,129.348 130.5,130.5C 129.964,134.314 128.964,137.981 127.5,141.5C 126.549,140.081 126.216,138.415 126.5,136.5C 126.5,136.167 126.5,135.833 126.5,135.5C 127.795,133.021 128.795,130.354 129.5,127.5 Z"/></g>
<g><path style="opacity:0.997" fill="#353535" d="M 148.5,124.5 C 149.391,125.261 150.058,126.261 150.5,127.5C 152.646,128.057 154.646,128.39 156.5,128.5C 155.322,129.999 153.655,130.999 151.5,131.5C 154.086,132.48 156.753,132.813 159.5,132.5C 160.833,132.833 160.833,133.167 159.5,133.5C 152.839,134.996 148.839,132.496 147.5,126C 147.57,125.235 147.903,124.735 148.5,124.5 Z"/></g>
<g><path style="opacity:0.998" fill="#303030" d="M 131.5,113.5 C 132.167,113.5 132.5,113.833 132.5,114.5C 134.833,115.833 137.167,115.833 139.5,114.5C 139.833,114.5 140.167,114.5 140.5,114.5C 141.738,114.81 141.738,115.31 140.5,116C 139.263,116.232 138.263,116.732 137.5,117.5C 133.891,119.109 131.224,121.776 129.5,125.5C 127.983,128.035 126.65,130.702 125.5,133.5C 124.5,136.832 123.5,140.166 122.5,143.5C 123.162,146.468 123.495,149.468 123.5,152.5C 122.833,152.5 122.5,152.833 122.5,153.5C 121.835,151.302 121.168,148.969 120.5,146.5C 119.893,146.624 119.56,146.957 119.5,147.5C 119.665,150.85 119.498,154.183 119,157.5C 118.292,156.619 117.458,155.953 116.5,155.5C 115.218,152.269 115.218,148.936 116.5,145.5C 118.074,143.898 118.741,141.898 118.5,139.5C 120.213,138.365 120.88,136.698 120.5,134.5C 121.799,132.847 121.466,131.347 119.5,130C 120.094,129.536 120.761,129.369 121.5,129.5C 124.719,130.948 125.719,129.948 124.5,126.5C 125.63,125.378 126.297,124.044 126.5,122.5C 126.66,120.847 127.326,119.514 128.5,118.5C 129.648,116.085 128.982,114.085 126.5,112.5C 125.833,112.5 125.5,112.167 125.5,111.5C 125.369,110.624 125.702,109.957 126.5,109.5C 128.419,110.612 130.086,111.946 131.5,113.5 Z"/></g>
<g><path style="opacity:0.106" fill="#dbdbdb" d="M 129.5,125.5 C 129.5,126.167 129.5,126.833 129.5,127.5C 128.795,130.354 127.795,133.021 126.5,135.5C 126.672,134.508 126.338,133.842 125.5,133.5C 126.65,130.702 127.983,128.035 129.5,125.5 Z"/></g>
<g><path style="opacity:0.584" fill="#a3a3a3" d="M 138.5,129.5 C 138.389,130.117 138.056,130.617 137.5,131C 138.624,131.249 139.624,131.749 140.5,132.5C 140.376,133.107 140.043,133.44 139.5,133.5C 139.44,132.957 139.107,132.624 138.5,132.5C 137.14,133.18 135.807,133.847 134.5,134.5C 133.646,132.965 133.646,131.632 134.5,130.5C 134.435,130.938 134.601,131.272 135,131.5C 135.816,130.177 136.983,129.511 138.5,129.5 Z"/></g>
<g><path style="opacity:0.169" fill="#d1d1d1" d="M 166.5,131.5 C 168.167,131.5 169.833,131.5 171.5,131.5C 170.766,132.708 170.433,134.041 170.5,135.5C 169.732,134.737 169.232,133.737 169,132.5C 168.79,134.058 168.29,135.391 167.5,136.5C 167.634,134.708 167.301,133.042 166.5,131.5 Z"/></g>
<g><path style="opacity:0.999" fill="#1e1e1e" d="M 178.5,127.5 C 178.263,128.791 178.596,129.791 179.5,130.5C 180.697,134.095 181.697,137.761 182.5,141.5C 182.263,142.791 182.596,143.791 183.5,144.5C 184.369,146.717 184.702,149.05 184.5,151.5C 184.806,154.385 184.473,157.052 183.5,159.5C 181.424,157.485 179.424,155.485 177.5,153.5C 178.634,151.034 178.801,148.367 178,145.5C 176.052,144.891 174.218,144.224 172.5,143.5C 174.167,143.5 175.833,143.5 177.5,143.5C 177.5,142.5 177.5,141.5 177.5,140.5C 177.5,139.833 177.5,139.167 177.5,138.5C 177.635,136.446 176.968,134.779 175.5,133.5C 176.445,131.296 176.611,128.962 176,126.5C 176.671,127.252 177.504,127.586 178.5,127.5 Z"/></g>
<g><path style="opacity:0.78" fill="#323232" d="M 190.5,131.5 C 190.5,132.167 190.5,132.833 190.5,133.5C 190.657,134.873 190.49,136.207 190,137.5C 189.768,136.263 189.268,135.263 188.5,134.5C 188.5,134.167 188.5,133.833 188.5,133.5C 188.34,131.801 188.506,130.134 189,128.5C 189.232,129.737 189.732,130.737 190.5,131.5 Z"/></g>
<g><path style="opacity:0.999" fill="#1a1a1a" d="M 141.5,137.5 C 141.5,138.5 141.5,139.5 141.5,140.5C 141.5,143.5 141.5,146.5 141.5,149.5C 142.189,150.774 143.023,150.774 144,149.5C 144.183,146.635 144.683,143.969 145.5,141.5C 145.198,144.059 145.532,146.393 146.5,148.5C 146.611,149.117 146.944,149.617 147.5,150C 144.719,150.522 142.385,151.689 140.5,153.5C 140.5,153.833 140.5,154.167 140.5,154.5C 140.167,154.5 139.833,154.5 139.5,154.5C 137.937,155.945 136.604,157.611 135.5,159.5C 135.5,160.167 135.167,160.5 134.5,160.5C 133.5,160.5 132.5,160.5 131.5,160.5C 131.5,159.5 131.5,158.5 131.5,157.5C 133.912,157.306 134.912,155.973 134.5,153.5C 134.5,151.167 134.5,148.833 134.5,146.5C 133.646,144.965 133.646,143.632 134.5,142.5C 134.783,143.289 135.283,143.956 136,144.5C 137.269,143.095 137.769,141.429 137.5,139.5C 138.675,138.026 139.675,136.36 140.5,134.5C 141.386,135.325 141.719,136.325 141.5,137.5 Z"/></g>
<g><path style="opacity:0.161" fill="#cecece" d="M 148.5,124.5 C 147.903,124.735 147.57,125.235 147.5,126C 148.839,132.496 152.839,134.996 159.5,133.5C 159.833,134.167 160.167,134.833 160.5,135.5C 157.167,135.5 153.833,135.5 150.5,135.5C 150.5,136.833 150.5,138.167 150.5,139.5C 148.649,138.134 148.316,136.467 149.5,134.5C 149.135,133.098 148.301,132.098 147,131.5C 144.975,132.809 143.475,134.475 142.5,136.5C 142.328,134.508 142.995,132.842 144.5,131.5C 144.291,130.914 143.957,130.414 143.5,130C 148.416,130.556 148.749,129.39 144.5,126.5C 145.859,125.993 146.859,124.993 147.5,123.5C 148.107,123.624 148.44,123.957 148.5,124.5 Z"/></g>
<g><path style="opacity:0.961" fill="#444444" d="M 202.5,145.5 C 201.833,143.833 201.167,142.167 200.5,140.5C 200.5,140.167 200.5,139.833 200.5,139.5C 200.328,138.508 200.662,137.842 201.5,137.5C 202.434,136.432 202.768,135.099 202.5,133.5C 201.127,133.657 199.793,133.49 198.5,133C 199.056,132.617 199.389,132.117 199.5,131.5C 201.03,130.933 202.53,130.267 204,129.5C 204.333,129.833 204.667,130.167 205,130.5C 205.12,135.647 204.286,140.647 202.5,145.5 Z"/></g>
<g><path style="opacity:0.031" fill="#b8b8b8" d="M 175.5,133.5 C 176.968,134.779 177.635,136.446 177.5,138.5C 176.732,137.737 176.232,136.737 176,135.5C 174.421,137.041 172.587,138.208 170.5,139C 172.74,139.977 175.073,140.477 177.5,140.5C 177.5,141.5 177.5,142.5 177.5,143.5C 175.833,143.5 174.167,143.5 172.5,143.5C 171.432,142.566 170.099,142.232 168.5,142.5C 169.609,141.71 170.942,141.21 172.5,141C 171.552,140.517 170.552,140.351 169.5,140.5C 169.22,137.612 170.553,136.112 173.5,136C 172.906,135.536 172.239,135.369 171.5,135.5C 172.514,134.326 173.847,133.66 175.5,133.5 Z"/></g>
<g><path style="opacity:0.933" fill="#878787" d="M 120.5,134.5 C 120.88,136.698 120.213,138.365 118.5,139.5C 118.402,137.447 119.069,135.78 120.5,134.5 Z"/></g>
<g><path style="opacity:0.051" fill="#d6d6d6" d="M 126.5,136.5 C 126.216,138.415 126.549,140.081 127.5,141.5C 127.631,142.376 127.298,143.043 126.5,143.5C 125.203,141.027 125.203,138.693 126.5,136.5 Z"/></g>
<g><path style="opacity:0.827" fill="#969696" d="M 130.5,127.5 C 130.842,126.662 131.508,126.328 132.5,126.5C 131.964,129.698 132.631,132.365 134.5,134.5C 133.286,137.129 133.286,139.796 134.5,142.5C 133.646,143.632 133.646,144.965 134.5,146.5C 132.864,145.251 131.697,143.584 131,141.5C 130.945,137.638 130.778,133.972 130.5,130.5C 131.625,129.348 131.625,128.348 130.5,127.5 Z"/></g>
<g><path style="opacity:0.318" fill="#d4d4d4" d="M 160.5,136.5 C 157.523,136.902 154.857,137.902 152.5,139.5C 151.596,138.791 151.263,137.791 151.5,136.5C 154.5,136.5 157.5,136.5 160.5,136.5 Z"/></g>
<g><path style="opacity:0.698" fill="#6e6e6e" d="M 167.5,136.5 C 168.354,138.035 168.354,139.368 167.5,140.5C 166.167,139.833 164.833,139.167 163.5,138.5C 164.671,137.655 166.005,136.989 167.5,136.5 Z"/></g>
<g><path style="opacity:0.996" fill="#141414" d="M 170.5,135.5 C 170.833,135.5 171.167,135.5 171.5,135.5C 172.239,135.369 172.906,135.536 173.5,136C 170.553,136.112 169.22,137.612 169.5,140.5C 170.552,140.351 171.552,140.517 172.5,141C 170.942,141.21 169.609,141.71 168.5,142.5C 166.302,142.591 165.969,141.925 167.5,140.5C 168.354,139.368 168.354,138.035 167.5,136.5C 168.29,135.391 168.79,134.058 169,132.5C 169.232,133.737 169.732,134.737 170.5,135.5 Z"/></g>
<g><path style="opacity:0.604" fill="#a0a0a0" d="M 141.5,137.5 C 141.833,137.5 142.167,137.5 142.5,137.5C 144.912,137.694 145.912,139.027 145.5,141.5C 144.683,143.969 144.183,146.635 144,149.5C 143.023,150.774 142.189,150.774 141.5,149.5C 142.993,148.688 143.66,147.355 143.5,145.5C 142.932,143.796 142.932,142.296 143.5,141C 142.906,140.536 142.239,140.369 141.5,140.5C 141.5,139.5 141.5,138.5 141.5,137.5 Z"/></g>
<g><path style="opacity:0.999" fill="#1e1e1e" d="M 200.5,140.5 C 201.167,142.167 201.833,143.833 202.5,145.5C 203.833,148.833 203.833,152.167 202.5,155.5C 199.639,150.739 198.972,145.739 200.5,140.5 Z"/></g>
<g><path style="opacity:0.741" fill="#a2a2a2" d="M 118.5,139.5 C 118.741,141.898 118.074,143.898 116.5,145.5C 116.595,143.214 117.262,141.214 118.5,139.5 Z"/></g>
<g><path style="opacity:0.725" fill="#a3a3a3" d="M 137.5,139.5 C 137.769,141.429 137.269,143.095 136,144.5C 135.283,143.956 134.783,143.289 134.5,142.5C 135.9,141.9 136.9,140.9 137.5,139.5 Z"/></g>
<g><path style="opacity:0.639" fill="#565656" d="M 160.5,135.5 C 161.833,135.833 161.833,136.167 160.5,136.5C 157.5,136.5 154.5,136.5 151.5,136.5C 151.263,137.791 151.596,138.791 152.5,139.5C 153.674,140.514 154.34,141.847 154.5,143.5C 154.565,143.938 154.399,144.272 154,144.5C 153.148,143.429 152.315,142.429 151.5,141.5C 150.662,141.158 150.328,140.492 150.5,139.5C 150.5,138.167 150.5,136.833 150.5,135.5C 153.833,135.5 157.167,135.5 160.5,135.5 Z"/></g>
<g><path style="opacity:0.796" fill="#b6b6b6" d="M 163.5,138.5 C 164.833,139.167 166.167,139.833 167.5,140.5C 165.969,141.925 166.302,142.591 168.5,142.5C 167.486,143.674 166.153,144.34 164.5,144.5C 166.031,143.075 165.698,142.409 163.5,142.5C 163.918,141.778 164.584,141.278 165.5,141C 164.062,140.781 162.729,140.281 161.5,139.5C 161.957,138.702 162.624,138.369 163.5,138.5 Z"/></g>
<g><path style="opacity:0.149" fill="#c5c5c5" d="M 184.5,135.5 C 184.198,138.059 184.532,140.393 185.5,142.5C 185.5,143.833 184.833,144.5 183.5,144.5C 182.596,143.791 182.263,142.791 182.5,141.5C 183.167,139.5 183.833,137.5 184.5,135.5 Z"/></g>
<g><path style="opacity:0.247" fill="#ababab" d="M 191.5,128.5 C 192.117,128.611 192.617,128.944 193,129.5C 193.167,131 193.333,132.5 193.5,134C 191.762,141.698 191.095,149.532 191.5,157.5C 190.167,157.5 188.833,157.5 187.5,157.5C 187.5,156.167 187.5,154.833 187.5,153.5C 188.158,154.398 188.824,155.398 189.5,156.5C 189.833,155.667 190.167,154.833 190.5,154C 191.069,147.436 190.403,140.936 188.5,134.5C 189.268,135.263 189.768,136.263 190,137.5C 190.49,136.207 190.657,134.873 190.5,133.5C 191.29,134.609 191.79,135.942 192,137.5C 192.634,134.445 192.468,131.445 191.5,128.5 Z"/></g>
<g><path style="opacity:0.035" fill="#d4d4d4" d="M 151.5,141.5 C 152.315,142.429 153.148,143.429 154,144.5C 154.399,144.272 154.565,143.938 154.5,143.5C 157.545,143.492 160.545,143.159 163.5,142.5C 162.449,143.222 161.782,144.222 161.5,145.5C 161.167,145.5 160.833,145.5 160.5,145.5C 158.03,144.122 155.696,144.455 153.5,146.5C 153.5,145.833 153.167,145.5 152.5,145.5C 152.5,144.833 152.167,144.5 151.5,144.5C 151.5,143.5 151.5,142.5 151.5,141.5 Z"/></g>
<g><path style="opacity:0.91" fill="#272727" d="M 163.5,142.5 C 165.698,142.409 166.031,143.075 164.5,144.5C 164.5,144.833 164.5,145.167 164.5,145.5C 164.631,146.239 164.464,146.906 164,147.5C 163.292,146.619 162.458,145.953 161.5,145.5C 161.782,144.222 162.449,143.222 163.5,142.5 Z"/></g>
<g><path style="opacity:0.714" fill="#a2a2a2" d="M 151.5,144.5 C 152.167,144.5 152.5,144.833 152.5,145.5C 153.167,145.5 153.5,145.833 153.5,146.5C 153.082,147.222 152.416,147.722 151.5,148C 152.774,148.977 152.774,149.811 151.5,150.5C 151.5,149.833 151.167,149.5 150.5,149.5C 149.093,147.692 147.926,145.692 147,143.5C 146.506,145.134 146.34,146.801 146.5,148.5C 145.532,146.393 145.198,144.059 145.5,141.5C 146.222,141.082 146.722,140.416 147,139.5C 148.517,141.24 150.017,142.906 151.5,144.5 Z"/></g>
<g><path style="opacity:0.553" fill="#afafaf" d="M 172.5,143.5 C 174.218,144.224 176.052,144.891 178,145.5C 178.801,148.367 178.634,151.034 177.5,153.5C 177.843,151.517 177.176,150.183 175.5,149.5C 177.031,148.075 176.698,147.409 174.5,147.5C 174.918,146.778 175.584,146.278 176.5,146C 174.423,145.808 172.423,145.308 170.5,144.5C 170.957,143.702 171.624,143.369 172.5,143.5 Z"/></g>
<g><path style="opacity:0.995" fill="#3d3d3d" d="M 160.5,145.5 C 157.472,145.79 155.472,147.457 154.5,150.5C 155.243,151.182 155.909,151.849 156.5,152.5C 156.167,153.167 155.833,153.833 155.5,154.5C 155.5,155.167 155.167,155.5 154.5,155.5C 153.626,153.31 151.959,152.31 149.5,152.5C 147.969,151.075 148.302,150.409 150.5,150.5C 150.833,150.5 151.167,150.5 151.5,150.5C 152.774,149.811 152.774,148.977 151.5,148C 152.416,147.722 153.082,147.222 153.5,146.5C 155.696,144.455 158.03,144.122 160.5,145.5 Z"/></g>
<g><path style="opacity:0.029" fill="#e5e5e5" d="M 193.5,144.5 C 193.185,147.211 193.852,149.544 195.5,151.5C 194.835,153.369 194.169,155.369 193.5,157.5C 192.189,153.016 192.189,148.683 193.5,144.5 Z"/></g>
<g><path style="opacity:0.337" fill="#b2b2b2" d="M 161.5,145.5 C 162.458,145.953 163.292,146.619 164,147.5C 164.464,146.906 164.631,146.239 164.5,145.5C 165.607,146.992 167.107,147.992 169,148.5C 170.825,148.057 172.658,147.723 174.5,147.5C 171.021,149.077 167.355,150.41 163.5,151.5C 163.611,150.883 163.944,150.383 164.5,150C 162.859,148.871 161.859,147.371 161.5,145.5 Z"/></g>
<g><path style="opacity:0.965" fill="#3e3e3e" d="M 174.5,147.5 C 176.698,147.409 177.031,148.075 175.5,149.5C 172.46,150.734 171.127,153.068 171.5,156.5C 171.631,157.239 171.464,157.906 171,158.5C 170.722,157.584 170.222,156.918 169.5,156.5C 169.5,154.833 169.5,153.167 169.5,151.5C 167.62,151.229 166.287,151.896 165.5,153.5C 165.167,153.5 164.833,153.5 164.5,153.5C 163.662,153.158 163.328,152.492 163.5,151.5C 167.355,150.41 171.021,149.077 174.5,147.5 Z"/></g>
<g><path style="opacity:0.02" fill="#ededed" d="M 195.5,151.5 C 196.167,151.5 196.833,151.5 197.5,151.5C 197.5,152.167 197.5,152.833 197.5,153.5C 196.167,154.167 196.167,154.833 197.5,155.5C 197.44,156.043 197.107,156.376 196.5,156.5C 195.548,154.955 195.215,153.288 195.5,151.5 Z"/></g>
<g><path style="opacity:0.161" fill="#c7c7c7" d="M 197.5,131.5 C 198.167,131.5 198.833,131.5 199.5,131.5C 199.389,132.117 199.056,132.617 198.5,133C 199.793,133.49 201.127,133.657 202.5,133.5C 202.768,135.099 202.434,136.432 201.5,137.5C 201.719,136.325 201.386,135.325 200.5,134.5C 199.212,136.299 199.212,137.965 200.5,139.5C 200.5,139.833 200.5,140.167 200.5,140.5C 198.972,145.739 199.639,150.739 202.5,155.5C 202.19,157.144 201.19,158.144 199.5,158.5C 199.662,156.473 199.495,154.473 199,152.5C 198.617,151.944 198.117,151.611 197.5,151.5C 198.146,148.313 198.48,145.146 198.5,142C 197.051,140.898 195.718,139.731 194.5,138.5C 194.369,137.761 194.536,137.094 195,136.5C 196,137.5 197,138.5 198,139.5C 198.175,136.843 198.008,134.176 197.5,131.5 Z"/></g>
<g><path style="opacity:0.075" fill="#e5e5e5" d="M 123.5,152.5 C 123.833,152.5 124.167,152.5 124.5,152.5C 124.762,153.978 124.429,155.311 123.5,156.5C 122.893,156.376 122.56,156.043 122.5,155.5C 123.833,155.167 123.833,154.833 122.5,154.5C 122.5,154.167 122.5,153.833 122.5,153.5C 123.167,153.5 123.5,153.167 123.5,152.5 Z"/></g>
<g><path style="opacity:0.999" fill="#1b1b1b" d="M 162.5,157.5 C 163.167,157.5 163.5,157.833 163.5,158.5C 162.781,160.764 162.448,163.097 162.5,165.5C 163.199,168.31 164.199,170.977 165.5,173.5C 165.5,174.833 165.5,176.167 165.5,177.5C 164.5,177.5 163.5,177.5 162.5,177.5C 161.508,177.672 160.842,177.338 160.5,176.5C 159.304,174.019 157.804,174.019 156,176.5C 155.506,174.866 155.34,173.199 155.5,171.5C 155.263,170.209 155.596,169.209 156.5,168.5C 157.156,167.378 157.489,166.045 157.5,164.5C 157.351,162.68 156.684,161.18 155.5,160C 157.229,158.211 157.896,156.044 157.5,153.5C 158.833,153.5 160.167,153.5 161.5,153.5C 161.232,155.099 161.566,156.432 162.5,157.5 Z"/></g>
<g><path style="opacity:0.275" fill="#c1c1c1" d="M 163.5,151.5 C 163.328,152.492 163.662,153.158 164.5,153.5C 163.194,154.467 162.527,155.801 162.5,157.5C 161.566,156.432 161.232,155.099 161.5,153.5C 160.167,153.5 158.833,153.5 157.5,153.5C 157.896,156.044 157.229,158.211 155.5,160C 156.684,161.18 157.351,162.68 157.5,164.5C 157.489,166.045 157.156,167.378 156.5,168.5C 156.808,166.076 156.474,163.743 155.5,161.5C 154.818,162.243 154.151,162.909 153.5,163.5C 153.737,162.209 153.404,161.209 152.5,160.5C 153.688,159.636 154.855,158.636 156,157.5C 156.74,156.251 156.573,155.251 155.5,154.5C 155.833,153.833 156.167,153.167 156.5,152.5C 158.95,152.702 161.283,152.369 163.5,151.5 Z"/></g>
<g><path style="opacity:0.063" fill="#dcdcdc" d="M 169.5,156.5 C 168.71,155.391 168.21,154.058 168,152.5C 167.329,153.252 166.496,153.586 165.5,153.5C 166.287,151.896 167.62,151.229 169.5,151.5C 169.5,153.167 169.5,154.833 169.5,156.5 Z"/></g>
<g><path style="opacity:0.886" fill="#646464" d="M 119.5,147.5 C 119.56,146.957 119.893,146.624 120.5,146.5C 121.168,148.969 121.835,151.302 122.5,153.5C 122.5,153.833 122.5,154.167 122.5,154.5C 122.5,154.833 122.5,155.167 122.5,155.5C 121.566,156.568 121.232,157.901 121.5,159.5C 123.786,159.595 125.786,160.262 127.5,161.5C 124.772,161.829 122.438,161.163 120.5,159.5C 120.817,155.298 120.483,151.298 119.5,147.5 Z"/></g>
<g><path style="opacity:0.616" fill="#b1b1b1" d="M 149.5,152.5 C 151.959,152.31 153.626,153.31 154.5,155.5C 154.048,158.674 153.048,159.007 151.5,156.5C 151.709,155.914 152.043,155.414 152.5,155C 151.429,154.148 150.429,153.315 149.5,152.5 Z"/></g>
<g><path style="opacity:0.153" fill="#e0e0e0" d="M 119.5,147.5 C 120.483,151.298 120.817,155.298 120.5,159.5C 118.227,159.043 116.894,157.71 116.5,155.5C 117.458,155.953 118.292,156.619 119,157.5C 119.498,154.183 119.665,150.85 119.5,147.5 Z"/></g>
<g><path style="opacity:0.224" fill="#c7c7c7" d="M 128.5,153.5 C 128.5,154.833 128.5,156.167 128.5,157.5C 127.5,157.5 126.5,157.5 125.5,157.5C 125.784,155.585 125.451,153.919 124.5,152.5C 124.369,151.624 124.702,150.957 125.5,150.5C 126.308,152.423 126.808,154.423 127,156.5C 127.232,155.263 127.732,154.263 128.5,153.5 Z"/></g>
<g><path style="opacity:0.631" fill="#a2a2a2" d="M 134.5,153.5 C 134.912,155.973 133.912,157.306 131.5,157.5C 132.512,156.128 133.512,154.795 134.5,153.5 Z"/></g>
<g><path style="opacity:0.655" fill="#868686" d="M 146.5,148.5 C 147.833,148.833 149.167,149.167 150.5,149.5C 150.5,149.833 150.5,150.167 150.5,150.5C 148.302,150.409 147.969,151.075 149.5,152.5C 148.178,152.67 147.011,152.337 146,151.5C 145.242,153.769 145.409,155.936 146.5,158C 145.619,158.708 144.953,159.542 144.5,160.5C 142.81,160.144 141.81,159.144 141.5,157.5C 142.363,158.463 143.03,158.463 143.5,157.5C 143.185,155.517 142.185,154.184 140.5,153.5C 142.385,151.689 144.719,150.522 147.5,150C 146.944,149.617 146.611,149.117 146.5,148.5 Z"/></g>
<g><path style="opacity:0.455" fill="#a9a9a9" d="M 184.5,151.5 C 185.397,152.598 186.23,152.598 187,151.5C 187.464,152.094 187.631,152.761 187.5,153.5C 186.532,155.607 186.198,157.941 186.5,160.5C 190.548,160.605 194.548,160.272 198.5,159.5C 193.331,162.774 188.331,162.774 183.5,159.5C 184.473,157.052 184.806,154.385 184.5,151.5 Z"/></g>
<g><path style="opacity:0.997" fill="#0f0f0f" d="M 124.5,152.5 C 125.451,153.919 125.784,155.585 125.5,157.5C 126.5,157.5 127.5,157.5 128.5,157.5C 128.5,156.167 128.5,154.833 128.5,153.5C 129.156,154.622 129.489,155.955 129.5,157.5C 129.415,159.333 128.748,160.666 127.5,161.5C 125.786,160.262 123.786,159.595 121.5,159.5C 121.232,157.901 121.566,156.568 122.5,155.5C 122.56,156.043 122.893,156.376 123.5,156.5C 124.429,155.311 124.762,153.978 124.5,152.5 Z"/></g>
<g><path style="opacity:0.063" fill="#dfdfdf" d="M 139.5,154.5 C 139.833,155.833 140.167,155.833 140.5,154.5C 141.338,154.842 141.672,155.508 141.5,156.5C 139.983,156.511 138.816,157.177 138,158.5C 137.814,161.036 137.314,163.369 136.5,165.5C 136.795,163.265 136.461,161.265 135.5,159.5C 136.604,157.611 137.937,155.945 139.5,154.5 Z"/></g>
<g><path style="opacity:0.22" fill="#c5c5c5" d="M 177.5,153.5 C 179.424,155.485 181.424,157.485 183.5,159.5C 182.833,159.5 182.5,159.833 182.5,160.5C 181.206,159.71 180.039,158.71 179,157.5C 178.333,158.167 177.667,158.833 177,159.5C 178.771,161.237 179.605,163.571 179.5,166.5C 178.596,165.791 178.263,164.791 178.5,163.5C 177.5,163.5 176.5,163.5 175.5,163.5C 175.335,160.482 175.502,157.482 176,154.5C 176.383,153.944 176.883,153.611 177.5,153.5 Z"/></g>
<g><path style="opacity:0.999" fill="#2a2a2a" d="M 182.5,160.5 C 183.167,165.16 183.333,169.826 183,174.5C 182.292,175.381 181.458,176.047 180.5,176.5C 178.896,175.713 178.229,174.38 178.5,172.5C 179.341,170.621 179.675,168.621 179.5,166.5C 179.605,163.571 178.771,161.237 177,159.5C 177.667,158.833 178.333,158.167 179,157.5C 180.039,158.71 181.206,159.71 182.5,160.5 Z"/></g>
<g><path style="opacity:0.149" fill="#b8b8b8" d="M 131.5,157.5 C 131.5,158.5 131.5,159.5 131.5,160.5C 132.5,160.5 133.5,160.5 134.5,160.5C 132.863,161.38 131.03,162.046 129,162.5C 128.235,162.43 127.735,162.097 127.5,161.5C 128.748,160.666 129.415,159.333 129.5,157.5C 129.489,155.955 129.156,154.622 128.5,153.5C 128.281,152.325 128.614,151.325 129.5,150.5C 130.168,152.969 130.835,155.302 131.5,157.5 Z"/></g>
<g><path style="opacity:0.435" fill="#b9b9b9" d="M 163.5,158.5 C 164.71,158.932 165.71,159.599 166.5,160.5C 165.375,161.348 165.375,162.348 166.5,163.5C 165.25,163.423 164.417,162.756 164,161.5C 163.79,163.058 163.29,164.391 162.5,165.5C 162.448,163.097 162.781,160.764 163.5,158.5 Z"/></g>
<g><path style="opacity:0.192" fill="#cdcdcd" d="M 142.5,162.5 C 141.833,162.833 141.167,163.167 140.5,163.5C 140.711,161.576 141.377,161.243 142.5,162.5 Z"/></g>
<g><path style="opacity:0.999" fill="#484848" d="M 152.5,160.5 C 153.404,161.209 153.737,162.209 153.5,163.5C 152.779,165.382 151.779,165.715 150.5,164.5C 149.89,163.609 149.557,162.609 149.5,161.5C 150.209,160.596 151.209,160.263 152.5,160.5 Z"/></g>
<g><path style="opacity:0.859" fill="#6f6f6f" d="M 169.5,156.5 C 170.222,156.918 170.722,157.584 171,158.5C 171.464,157.906 171.631,157.239 171.5,156.5C 176.434,163.565 174.767,165.899 166.5,163.5C 165.375,162.348 165.375,161.348 166.5,160.5C 170.337,161.65 171.337,160.317 169.5,156.5 Z"/></g>
<g><path style="opacity:0.004" fill="#cccccc" d="M 144.5,160.5 C 145.778,160.782 146.778,161.449 147.5,162.5C 146.084,164.851 144.417,164.851 142.5,162.5C 144.993,162.869 145.66,162.203 144.5,160.5 Z"/></g>
<g><path style="opacity:0.278" fill="#bbbbbb" d="M 147.5,162.5 C 147.842,161.662 148.508,161.328 149.5,161.5C 149.557,162.609 149.89,163.609 150.5,164.5C 149.222,164.218 148.222,163.551 147.5,162.5 Z"/></g>
<g><path style="opacity:0.575" fill="#9b9b9b" d="M 176.5,170.5 C 175.596,171.209 175.263,172.209 175.5,173.5C 174.5,173.5 173.5,173.5 172.5,173.5C 173.806,171.755 174.806,169.755 175.5,167.5C 176.386,168.325 176.719,169.325 176.5,170.5 Z"/></g>
<g><path style="opacity:0.329" fill="#b4b4b4" d="M 170.5,173.5 C 169.71,172.391 169.21,171.058 169,169.5C 168.722,170.416 168.222,171.082 167.5,171.5C 167.312,169.897 167.812,168.563 169,167.5C 170.319,169.25 170.819,171.25 170.5,173.5 Z"/></g>
<g><path style="opacity:0.997" fill="#232323" d="M 141.5,156.5 C 141.5,156.833 141.5,157.167 141.5,157.5C 141.81,159.144 142.81,160.144 144.5,160.5C 145.66,162.203 144.993,162.869 142.5,162.5C 141.377,161.243 140.711,161.576 140.5,163.5C 139.841,166.455 139.508,169.455 139.5,172.5C 140.568,173.434 141.901,173.768 143.5,173.5C 144.975,171.323 144.975,172.656 143.5,177.5C 137.277,177.612 134.61,174.612 135.5,168.5C 135.263,167.209 135.596,166.209 136.5,165.5C 137.314,163.369 137.814,161.036 138,158.5C 138.816,157.177 139.983,156.511 141.5,156.5 Z"/></g>
<g><path style="opacity:0.753" fill="#858585" d="M 152.5,172.5 C 151.883,172.389 151.383,172.056 151,171.5C 150.722,172.416 150.222,173.082 149.5,173.5C 149.051,171.023 149.717,169.023 151.5,167.5C 152.452,169.045 152.785,170.712 152.5,172.5 Z"/></g>
<g><path style="opacity:0.998" fill="#090909" d="M 152.5,172.5 C 153.038,174.117 153.371,175.784 153.5,177.5C 150.833,177.5 148.167,177.5 145.5,177.5C 145.5,176.5 145.5,175.5 145.5,174.5C 147.099,174.768 148.432,174.434 149.5,173.5C 150.222,173.082 150.722,172.416 151,171.5C 151.383,172.056 151.883,172.389 152.5,172.5 Z"/></g>
<g><path style="opacity:0.997" fill="#171717" d="M 170.5,173.5 C 171.167,173.5 171.833,173.5 172.5,173.5C 173.5,173.5 174.5,173.5 175.5,173.5C 175.263,172.209 175.596,171.209 176.5,170.5C 176.5,170.833 176.5,171.167 176.5,171.5C 177.038,173.117 177.371,174.784 177.5,176.5C 177.5,176.833 177.5,177.167 177.5,177.5C 174.167,177.5 170.833,177.5 167.5,177.5C 167.5,175.833 167.5,174.167 167.5,172.5C 167.5,172.167 167.5,171.833 167.5,171.5C 168.222,171.082 168.722,170.416 169,169.5C 169.21,171.058 169.71,172.391 170.5,173.5 Z"/></g>
<g><path style="opacity:0.027" fill="#b0b0b0" d="M 155.5,171.5 C 155.34,173.199 155.506,174.866 156,176.5C 157.804,174.019 159.304,174.019 160.5,176.5C 159.883,176.389 159.383,176.056 159,175.5C 157.556,177.155 155.722,177.822 153.5,177.5C 153.371,175.784 153.038,174.117 152.5,172.5C 153.117,172.611 153.617,172.944 154,173.5C 154.278,172.584 154.778,171.918 155.5,171.5 Z"/></g>
<g><path style="opacity:0.063" fill="#e9e9e9" d="M 176.5,171.5 C 177.167,171.833 177.833,172.167 178.5,172.5C 178.229,174.38 178.896,175.713 180.5,176.5C 179.652,177.625 178.652,177.625 177.5,176.5C 177.371,174.784 177.038,173.117 176.5,171.5 Z"/></g>
<g><path style="opacity:0.255" fill="#a4a4a4" d="M 149.5,173.5 C 148.432,174.434 147.099,174.768 145.5,174.5C 145.5,175.5 145.5,176.5 145.5,177.5C 148.167,177.5 150.833,177.5 153.5,177.5C 147.928,178.87 142.261,178.703 136.5,177C 132.866,174.47 132.532,171.637 135.5,168.5C 134.61,174.612 137.277,177.612 143.5,177.5C 144.975,172.656 144.975,171.323 143.5,173.5C 141.901,173.768 140.568,173.434 139.5,172.5C 140.5,172.5 141.5,172.5 142.5,172.5C 144.885,165.596 145.885,165.93 145.5,173.5C 146.833,173.5 148.167,173.5 149.5,173.5 Z"/></g>
<g><path style="opacity:0.129" fill="#c7c7c7" d="M 167.5,172.5 C 167.5,174.167 167.5,175.833 167.5,177.5C 170.833,177.5 174.167,177.5 177.5,177.5C 172.5,178.833 167.5,178.833 162.5,177.5C 163.5,177.5 164.5,177.5 165.5,177.5C 165.5,176.167 165.5,174.833 165.5,173.5C 166.167,173.167 166.833,172.833 167.5,172.5 Z"/></g>
<g><path style="opacity:1" fill="#4b4b4b" d="M 267.5,196.5 C 272.587,196.284 273.587,198.118 270.5,202C 266.537,202.118 265.537,200.284 267.5,196.5 Z"/></g>
<g><path style="opacity:1" fill="#2b2b2b" d="M 118.5,198.5 C 119.833,198.5 121.167,198.5 122.5,198.5C 122.5,201.167 122.5,203.833 122.5,206.5C 122.5,207.5 122.5,208.5 122.5,209.5C 120.876,209.64 119.71,208.973 119,207.5C 118.502,204.518 118.335,201.518 118.5,198.5 Z"/></g>
<g><path style="opacity:0.541" fill="#9c9c9c" d="M 118.5,198.5 C 119.919,197.549 121.585,197.216 123.5,197.5C 123.81,200.713 123.477,203.713 122.5,206.5C 122.5,203.833 122.5,201.167 122.5,198.5C 121.167,198.5 119.833,198.5 118.5,198.5 Z"/></g>
<g><path style="opacity:0.251" fill="#cacaca" d="M 150.5,199.5 C 155.305,198.513 160.305,198.179 165.5,198.5C 165.5,200.167 165.5,201.833 165.5,203.5C 162.167,203.5 158.833,203.5 155.5,203.5C 158.287,202.523 161.287,202.19 164.5,202.5C 164.5,201.5 164.5,200.5 164.5,199.5C 160.167,199.5 155.833,199.5 151.5,199.5C 151.167,199.5 150.833,199.5 150.5,199.5 Z"/></g>
<g><path style="opacity:0.999" fill="#3e3e3e" d="M 36.5,198.5 C 40.5839,198.043 44.4172,198.71 48,200.5C 48.436,202.296 47.7693,203.629 46,204.5C 35.5155,203.017 32.6821,207.184 37.5,217C 42.0606,219.797 44.394,218.631 44.5,213.5C 43.1667,213.5 41.8333,213.5 40.5,213.5C 40.5,211.833 40.5,210.167 40.5,208.5C 43.4475,208.223 46.2809,208.556 49,209.5C 51.6668,221.263 47.1668,225.429 35.5,222C 29.0525,216.555 27.8858,210.055 32,202.5C 33.3968,200.93 34.8968,199.596 36.5,198.5 Z"/></g>
<g><path style="opacity:1" fill="#222222" d="M 151.5,199.5 C 155.833,199.5 160.167,199.5 164.5,199.5C 164.5,200.5 164.5,201.5 164.5,202.5C 161.287,202.19 158.287,202.523 155.5,203.5C 155.5,204.833 155.5,206.167 155.5,207.5C 158.167,207.5 160.833,207.5 163.5,207.5C 163.5,209.167 163.5,210.833 163.5,212.5C 160.833,212.5 158.167,212.5 155.5,212.5C 155.5,214.167 155.5,215.833 155.5,217.5C 158.713,217.19 161.713,217.523 164.5,218.5C 164.5,219.5 164.5,220.5 164.5,221.5C 160.167,221.5 155.833,221.5 151.5,221.5C 151.5,214.167 151.5,206.833 151.5,199.5 Z"/></g>
<g><path style="opacity:0.999" fill="#2c2c2c" d="M 114.5,204.5 C 114.5,205.5 114.5,206.5 114.5,207.5C 113.167,207.5 111.833,207.5 110.5,207.5C 110.185,211.371 110.518,215.038 111.5,218.5C 112.209,219.404 113.209,219.737 114.5,219.5C 114.5,220.5 114.5,221.5 114.5,222.5C 111.939,223.831 109.439,223.498 107,221.5C 106.035,216.106 104.868,210.772 103.5,205.5C 105.179,205.715 106.179,205.048 106.5,203.5C 106.5,202.167 106.5,200.833 106.5,199.5C 110.5,198.833 112.167,200.5 111.5,204.5C 112.5,204.5 113.5,204.5 114.5,204.5 Z"/></g>
<g><path style="opacity:0.998" fill="#313131" d="M 189.5,208.5 C 188.449,207.778 187.782,206.778 187.5,205.5C 188.869,203.932 189.869,202.099 190.5,200C 191.793,199.51 193.127,199.343 194.5,199.5C 194.5,201.167 194.5,202.833 194.5,204.5C 196.167,204.5 197.833,204.5 199.5,204.5C 199.5,205.833 199.5,207.167 199.5,208.5C 197.833,208.5 196.167,208.5 194.5,208.5C 194.336,211.187 194.503,213.854 195,216.5C 196.733,217.833 198.233,219.333 199.5,221C 196.307,224.263 193.14,224.097 190,220.5C 189.501,216.514 189.334,212.514 189.5,208.5 Z"/></g>
<g><path style="opacity:0.999" fill="#363636" d="M 71.5,203.5 C 81.5493,204.586 84.7159,209.919 81,219.5C 75.6552,225.086 70.6552,224.753 66,218.5C 63.9583,211.873 65.7916,206.873 71.5,203.5 Z M 72.5,208.5 C 77.4289,209.82 78.5956,212.82 76,217.5C 72.5202,218.887 70.6869,217.554 70.5,213.5C 70.9024,211.7 71.5691,210.033 72.5,208.5 Z"/></g>
<g><path style="opacity:0.999" fill="#3e3e3e" d="M 91.5,203.5 C 98.3194,203.318 101.986,206.651 102.5,213.5C 101.071,221.713 96.4039,224.547 88.5,222C 84.2856,217.8 83.4522,212.966 86,207.5C 87.4998,205.531 89.3331,204.198 91.5,203.5 Z M 91.5,208.5 C 96.1514,209.174 97.6514,211.841 96,216.5C 94.6043,218.527 92.9376,218.86 91,217.5C 90.2642,214.408 90.4309,211.408 91.5,208.5 Z"/></g>
<g><path style="opacity:0.765" fill="#7b7b7b" d="M 106.5,203.5 C 106.179,205.048 105.179,205.715 103.5,205.5C 104.29,204.599 105.29,203.932 106.5,203.5 Z"/></g>
<g><path style="opacity:0.999" fill="#424242" d="M 128.5,221.5 C 127.89,220.609 127.557,219.609 127.5,218.5C 130.027,218.353 132.693,218.02 135.5,217.5C 131.436,215.978 128.436,213.311 126.5,209.5C 129.766,203.078 134.432,201.911 140.5,206C 139.845,207.487 138.845,208.653 137.5,209.5C 135.802,208.319 134.135,208.319 132.5,209.5C 135.086,211.043 137.586,212.709 140,214.5C 141.48,220.362 139.147,223.362 133,223.5C 131.124,223.475 129.624,222.809 128.5,221.5 Z"/></g>
<g><path style="opacity:0.999" fill="#373737" d="M 216.5,214.5 C 212.833,214.5 209.167,214.5 205.5,214.5C 205.263,215.791 205.596,216.791 206.5,217.5C 209.002,218.779 211.502,218.779 214,217.5C 217.426,220.133 216.926,221.966 212.5,223C 202.792,223.457 199.125,218.957 201.5,209.5C 202.906,209.027 203.573,208.027 203.5,206.5C 207.878,202.286 212.045,202.619 216,207.5C 216.251,209.433 216.751,211.266 217.5,213C 216.944,213.383 216.611,213.883 216.5,214.5 Z M 207.5,208.5 C 209.716,208.275 211.383,209.108 212.5,211C 210.421,211.808 208.421,211.641 206.5,210.5C 206.863,209.817 207.196,209.15 207.5,208.5 Z"/></g>
<g><path style="opacity:1" fill="#3a3a3a" d="M 223.5,204.5 C 223.281,205.675 223.614,206.675 224.5,207.5C 225.107,207.376 225.44,207.043 225.5,206.5C 225.5,205.167 226.167,204.5 227.5,204.5C 228.5,204.5 229.5,204.5 230.5,204.5C 230.5,205.833 230.5,207.167 230.5,208.5C 228.61,208.297 227.11,208.963 226,210.5C 225.501,214.486 225.334,218.486 225.5,222.5C 223.5,222.5 221.5,222.5 219.5,222.5C 219.5,216.5 219.5,210.5 219.5,204.5C 220.833,204.5 222.167,204.5 223.5,204.5 Z"/></g>
<g><path style="opacity:1" fill="#404040" d="M 240.5,222.5 C 240.5,222.167 240.5,221.833 240.5,221.5C 241.043,221.44 241.376,221.107 241.5,220.5C 240.757,219.818 240.091,219.151 239.5,218.5C 243.062,218.436 244.729,216.603 244.5,213C 245.068,209.737 243.734,208.237 240.5,208.5C 240.611,207.883 240.944,207.383 241.5,207C 239.942,206.79 238.609,206.29 237.5,205.5C 245.246,201.924 249.579,204.424 250.5,213C 250.279,220.07 246.946,223.237 240.5,222.5 Z"/></g>
<g><path style="opacity:0.999" fill="#444444" d="M 279.5,203.5 C 282.272,203.22 284.772,203.887 287,205.5C 287.684,206.784 287.517,207.951 286.5,209C 278.713,208.643 278.713,209.976 286.5,213C 289.92,218.991 288.087,222.491 281,223.5C 278.307,223.238 276.14,222.071 274.5,220C 274.667,218.5 275.5,217.667 277,217.5C 285.422,218.545 285.589,217.378 277.5,214C 273.663,209.79 274.33,206.29 279.5,203.5 Z"/></g>
<g><path style="opacity:0.999" fill="#383838" d="M 305.5,214.5 C 301.774,214.177 298.107,214.511 294.5,215.5C 294.624,216.107 294.957,216.44 295.5,216.5C 296.5,216.833 297.167,217.5 297.5,218.5C 299.607,219.468 301.941,219.802 304.5,219.5C 305.774,220.189 305.774,221.023 304.5,222C 296.237,224.87 291.237,222.036 289.5,213.5C 289.752,207.649 292.752,204.315 298.5,203.5C 304.719,204.97 307.052,208.637 305.5,214.5 Z M 296.5,208.5 C 298.665,208.116 300.332,208.783 301.5,210.5C 299.5,211.833 297.5,211.833 295.5,210.5C 295.863,209.817 296.196,209.15 296.5,208.5 Z"/></g>
<g><path style="opacity:1" fill="#3f3f3f" d="M 56.5,204.5 C 56.281,205.675 56.6143,206.675 57.5,207.5C 58.1067,207.376 58.44,207.043 58.5,206.5C 59.6874,204.025 61.6874,203.025 64.5,203.5C 64.5,205.167 64.5,206.833 64.5,208.5C 62.2776,208.178 60.4443,208.845 59,210.5C 58.5012,214.486 58.3345,218.486 58.5,222.5C 56.5,222.5 54.5,222.5 52.5,222.5C 52.5,216.5 52.5,210.5 52.5,204.5C 53.8333,204.5 55.1667,204.5 56.5,204.5 Z"/></g>
<g><path style="opacity:0.999" fill="#161616" d="M 237.5,205.5 C 238.609,206.29 239.942,206.79 241.5,207C 240.944,207.383 240.611,207.883 240.5,208.5C 239.883,208.611 239.383,208.944 239,209.5C 238.264,212.592 238.431,215.592 239.5,218.5C 240.091,219.151 240.757,219.818 241.5,220.5C 241.376,221.107 241.043,221.44 240.5,221.5C 239.504,221.586 238.671,221.252 238,220.5C 237.503,223.146 237.336,225.813 237.5,228.5C 236.167,228.5 234.833,228.5 233.5,228.5C 233.5,220.5 233.5,212.5 233.5,204.5C 235.099,204.232 236.432,204.566 237.5,205.5 Z"/></g>
<g><path style="opacity:0.996" fill="#2a2a2a" d="M 261.5,203.5 C 265.484,203.472 266.484,205.139 264.5,208.5C 262.418,208.472 260.584,209.139 259,210.5C 258.501,214.486 258.334,218.486 258.5,222.5C 256.833,222.5 255.167,222.5 253.5,222.5C 253.5,216.5 253.5,210.5 253.5,204.5C 255.451,204.227 256.951,204.893 258,206.5C 259.145,205.364 260.312,204.364 261.5,203.5 Z"/></g>
<g><path style="opacity:1" fill="#272727" d="M 266.5,204.5 C 268.167,204.5 269.833,204.5 271.5,204.5C 271.5,210.5 271.5,216.5 271.5,222.5C 269.833,222.5 268.167,222.5 266.5,222.5C 266.5,216.5 266.5,210.5 266.5,204.5 Z"/></g>
<g><path style="opacity:0.365" fill="#9e9e9e" d="M 56.5,204.5 C 57.1667,205.167 57.8333,205.833 58.5,206.5C 58.44,207.043 58.1067,207.376 57.5,207.5C 56.6143,206.675 56.281,205.675 56.5,204.5 Z"/></g>
<g><path style="opacity:1" fill="#424242" d="M 172.5,204.5 C 173.053,206.552 174.053,206.885 175.5,205.5C 180.396,202.197 183.563,203.531 185,209.5C 185.499,213.821 185.666,218.154 185.5,222.5C 183.5,222.5 181.5,222.5 179.5,222.5C 179.666,218.154 179.499,213.821 179,209.5C 177.887,208.289 176.72,208.289 175.5,209.5C 174.508,213.783 174.174,218.116 174.5,222.5C 172.5,222.5 170.5,222.5 168.5,222.5C 168.5,216.5 168.5,210.5 168.5,204.5C 169.833,204.5 171.167,204.5 172.5,204.5 Z"/></g>
<g><path style="opacity:0.655" fill="#909090" d="M 172.5,204.5 C 173.391,205.11 174.391,205.443 175.5,205.5C 174.053,206.885 173.053,206.552 172.5,204.5 Z"/></g>
<g><path style="opacity:0.467" fill="#a4a4a4" d="M 223.5,204.5 C 224.167,205.167 224.833,205.833 225.5,206.5C 225.44,207.043 225.107,207.376 224.5,207.5C 223.614,206.675 223.281,205.675 223.5,204.5 Z"/></g>
<g><path style="opacity:0.731" fill="#9c9c9c" d="M 114.5,204.5 C 115.434,205.568 115.768,206.901 115.5,208.5C 114.167,208.5 112.833,208.5 111.5,208.5C 111.5,211.833 111.5,215.167 111.5,218.5C 110.518,215.038 110.185,211.371 110.5,207.5C 111.833,207.5 113.167,207.5 114.5,207.5C 114.5,206.5 114.5,205.5 114.5,204.5 Z"/></g>
<g><path style="opacity:0.733" fill="#888888" d="M 187.5,205.5 C 187.782,206.778 188.449,207.778 189.5,208.5C 188.5,208.5 187.5,208.5 186.5,208.5C 186.263,207.209 186.596,206.209 187.5,205.5 Z"/></g>
<g><path style="opacity:0.031" fill="#dbdbdb" d="M 227.5,204.5 C 228.568,203.566 229.901,203.232 231.5,203.5C 231.784,205.415 231.451,207.081 230.5,208.5C 230.5,207.167 230.5,205.833 230.5,204.5C 229.5,204.5 228.5,204.5 227.5,204.5 Z"/></g>
<g><path style="opacity:0.278" fill="#adadad" d="M 203.5,206.5 C 203.573,208.027 202.906,209.027 201.5,209.5C 201.427,207.973 202.094,206.973 203.5,206.5 Z"/></g>
<g><path style="opacity:0.076" fill="#e7e7e7" d="M 216.5,214.5 C 212.881,214.881 209.548,215.881 206.5,217.5C 205.596,216.791 205.263,215.791 205.5,214.5C 209.167,214.5 212.833,214.5 216.5,214.5 Z"/></g>
<g><path style="opacity:0.076" fill="#e9e9e9" d="M 305.5,214.5 C 302.167,215.167 298.833,215.833 295.5,216.5C 294.957,216.44 294.624,216.107 294.5,215.5C 298.107,214.511 301.774,214.177 305.5,214.5 Z"/></g>
<g><path style="opacity:0.153" fill="#adadad" d="M 111.5,218.5 C 112.833,218.5 114.167,218.5 115.5,218.5C 115.768,220.099 115.434,221.432 114.5,222.5C 114.5,221.5 114.5,220.5 114.5,219.5C 113.209,219.737 112.209,219.404 111.5,218.5 Z"/></g>
<g><path style="opacity:0.996" fill="#868686" d="M 304.5,219.5 C 301.941,219.802 299.607,219.468 297.5,218.5C 299.467,218.739 301.301,218.406 303,217.5C 303.717,218.044 304.217,218.711 304.5,219.5 Z"/></g>
<g><path style="opacity:0.525" fill="#a9a9a9" d="M 127.5,218.5 C 127.557,219.609 127.89,220.609 128.5,221.5C 126.448,220.947 126.115,219.947 127.5,218.5 Z"/></g>
<g><path style="opacity:0.729" fill="#464646" d="M 150.5,199.5 C 150.833,199.5 151.167,199.5 151.5,199.5C 151.5,206.833 151.5,214.167 151.5,221.5C 155.833,221.5 160.167,221.5 164.5,221.5C 164.5,220.5 164.5,219.5 164.5,218.5C 165.434,219.568 165.768,220.901 165.5,222.5C 160.5,222.5 155.5,222.5 150.5,222.5C 150.5,214.833 150.5,207.167 150.5,199.5 Z"/></g>
<g><path style="opacity:0.271" fill="#a5a5a5" d="M 240.5,221.5 C 240.5,221.833 240.5,222.167 240.5,222.5C 238.656,224.279 237.99,226.612 238.5,229.5C 236.585,229.784 234.919,229.451 233.5,228.5C 234.833,228.5 236.167,228.5 237.5,228.5C 237.336,225.813 237.503,223.146 238,220.5C 238.671,221.252 239.504,221.586 240.5,221.5 Z"/></g>
</svg>
